<?xml version="1.0" encoding="utf-8"?>
<!-- Generator: Adobe Illustrator 27.2.0, SVG Export Plug-In . SVG Version: 6.00 Build 0)  -->
<svg version="1.1" id="Layer_1" xmlns="http://www.w3.org/2000/svg" xmlns:xlink="http://www.w3.org/1999/xlink" x="0px" y="0px"
	 viewBox="0 0 149.5 120.1" style="enable-background:new 0 0 149.5 120.1;" xml:space="preserve">
<style type="text/css">
	.st0{fill:#FFFFFF;}
	.st1{fill:#E28582;}
</style>
<rect x="17" y="19" class="st0" width="116.5" height="101.1"/>
<path id="logo" class="st1" d="M16,0h117.5c8.8,0,16,7.2,16,16v88.1c0,8.8-7.2,16-16,16h-19.8c-0.5-6.1-1-12.2-1.4-18.3
	c-0.2-2.1-0.1-4.3,0.1-6.4c0.4-5.2,3.4-9.1,6.8-12.7c1.6-1.7,3.3-3.3,4.6-5.2c0.1-0.2,0.2-0.4,0.4-0.6c-3.8-8.7-14.1-15.2-14.1-15.2
	c2-0.4,3.7-0.5,5.1-0.4c5.3,0.5,9.4,3.4,12.4,6.6c0.3-1.8,0.4-3.6,0.5-5.4c0.3-10.9-3.5-20.2-11.2-28.8c-1.2-0.8-2.7-2.2-4.5-3.2
	c-3.3-2-6.8-2-10.2-0.1c-3.2,1.6-5.6,4.1-7.7,6.9c-7.2,9.8-9.8,20.7-7.2,32.7c0.9,4.2,3.1,7.8,6,10.9c1.8,1.9,3.5,3.8,5.1,5.8
	c2.9,3.6,4.1,7.7,3.8,12.2c-0.4,7.1-0.9,14.2-1.5,21.3H49c-0.5-6.1-1-12.2-1.4-18.3c-0.2-2.1-0.1-4.3,0-6.4
	c0.5-5.2,3.5-9.1,6.8-12.7c1.6-1.7,3.3-3.3,4.6-5.2c0.1-0.2,0.2-0.4,0.4-0.6c-3.8-8.7-14.1-15.2-14.1-15.2c2-0.4,3.7-0.5,5.1-0.4
	c5.3,0.5,9.4,3.5,12.4,6.6c0.3-1.8,0.5-3.6,0.5-5.4c0.3-10.9-3.5-20.2-11.2-28.8c-1.2-0.8-2.7-2.2-4.5-3.2c-3.3-2-6.8-2-10.2-0.1
	c-3.2,1.6-5.6,4.1-7.7,6.9c-7.2,9.8-9.9,20.7-7.2,32.7c0.9,4.2,3.1,7.8,6,10.9c1.8,1.9,3.5,3.8,5.1,5.8c2.9,3.6,4.1,7.7,3.8,12.2
	c-0.5,7.1-0.9,14.2-1.5,21.3H16c-8.8,0-16-7.2-16-16V16C0,7.2,7.2,0,16,0"/>
</svg>
