<svg xmlns="http://www.w3.org/2000/svg" version="1.1" x="0" y="0" viewBox="0 0 166.4 85.6" xml:space="preserve"><style type="text/css">.st0 {fill: #0066B3;}.st1 {fill: #FFFFFF;}</style><path class="st0" d="M16.4 72.3h-4.5c0 0-2.4 5.9-3.1 7.5 -0.6-1.7-2.9-7.5-2.9-7.5H0.7v1.5c0 0 1.1 0 1.6 0 0 0.8 0 8.8 0 9.6 -0.5 0-1.6 0-1.6 0v1.5H5v-1.5c0 0-0.7 0-1.2 0 0-0.6 0-4.2 0-6.8 1.1 2.8 3.3 8.5 3.3 8.5h1.2c0 0 2.4-5.8 3.5-8.6 0 2.5 0 6.2 0 6.8 -0.5 0-1.2 0-1.2 0v1.5h6.3v-1.5c0 0-1.1 0-1.6 0 0-0.8 0-8.8 0-9.6 0.5 0 1.6 0 1.6 0v-1.5H16.4"/><path class="st0" d="M107.9 72.3h-4.3v1.5c0 0 0.7 0 1.2 0 -0.7 0.9-3.5 3.6-3.7 3.9 -0.1 0-0.2 0-0.4 0 0-0.6 0-3.3 0-3.9 0.5 0 1.1 0 1.1 0v-1.5h-6.3v1.5c0 0 1.2 0 1.7 0 0 0.7 0 9 0 9.6 -0.5 0-1.7 0-1.7 0v1.5h6.4v-1.5c0 0-0.7 0-1.1 0 0-0.6 0-3.9 0-4.5 0.2 0 0.2 0 0.4 0 0.2 0.3 2.3 3.6 2.9 4.5 -0.4 0-0.9 0-0.9 0v1.5h6.7v-1.5c0 0-1.3 0-1.6 0 -0.2-0.3-4.1-6.1-4.4-6.5 0.3-0.3 2.7-2.9 2.9-3.1 0.3 0 2.2 0 2.2 0v-1.5H107.9"/><path class="st0" d="M123.6 72.3h-6.5v1.5c0 0 1.2 0 1.7 0 0 0.7 0 8.9 0 9.6 -1.4 0-1.6 0-1.7 0v1.5h12.4v-4.9h-1.3l0 0.3c-0.3 2.7-2.4 3.1-4.2 3.1 0 0-1.2 0-1.7 0 0-0.7 0-9 0-9.6 0.5 0 1.6 0 1.6 0v-1.5H123.6"/><path class="st0" d="M79.1 75.8c0 2.7 2.8 3.6 5.1 4.3 2.1 0.7 3.4 1.2 3.4 2.3 0 1.5-2 1.7-2.8 1.7 -2.5 0-4.1-1.8-4.2-3.5l0-0.4h-1.7l0.2 4.3 0.3 0.1c1.6 0.6 3.4 0.9 5.2 0.9 3.5 0 6.1-1.8 6.1-4.3 0-3.1-3-4.1-5.4-4.8 -1.8-0.6-3-1-3-1.9 0-0.9 0.8-1.6 2-1.6 2.1 0 3.4 1.4 3.7 2.9l0.1 0.3h1.6l-0.2-3.7 -0.3-0.1c-1.9-0.6-3.1-0.8-4.5-0.8C81.9 71.6 79.1 72.9 79.1 75.8"/><path class="st0" d="M22.4 75.9C21.5 76 20.7 76 19.9 76h-1.4v1.2c0 0 0.8 0 1.2 0 0 0.6 0 5.7 0 6.4 -0.4 0-1.2 0-1.2 0v1.2H24v-1.2c0 0-0.8 0-1.2 0 0-0.7 0-7.7 0-7.7L22.4 75.9"/><path class="st0" d="M19.6 73.7c0 0.9 0.7 1.7 1.7 1.7 0.9 0 1.7-0.7 1.7-1.7 0-0.9-0.7-1.7-1.7-1.7C20.3 72.1 19.6 72.8 19.6 73.7"/><path class="st0" d="M28.7 73.7H26c0 0 0 1.8 0 2.3 -0.4 0-1.2 0-1.2 0v1.2c0 0 0.8 0 1.2 0 0 0.6 0 5.3 0 5.3 0 2.2 1.3 2.5 2.5 2.5 0.9 0 1.9-0.1 2.8-1l0.2-0.2 -0.8-0.8 -0.3 0.2c-0.2 0.2-0.5 0.4-0.9 0.4 -0.4 0-0.5-0.2-0.5-1 0 0 0-4.8 0-5.4 0.4 0 1.7 0 1.7 0V76c0 0-1.2 0-1.7 0 0-0.5 0-2.3 0-2.3H28.7"/><path class="st0" d="M32.4 81.3l0 3 0.3 0.1c0.6 0.2 1.8 0.6 3.2 0.6 1.9 0 3.9-1.2 3.9-3.4 0-1.5-0.8-2.2-1.7-2.7 -0.1-0.1-0.3-0.1-0.3-0.1 -0.4-0.2-0.8-0.3-1.2-0.5 -1-0.3-1.5-0.6-1.5-1 0-0.6 0.7-0.7 0.9-0.7 1.1 0 1.8 0.8 1.9 1.7H39V76l-0.3-0.1c-0.7-0.3-1.4-0.5-2.7-0.5 -2.1 0-3.4 1.2-3.4 3.1 0 2.2 1.8 2.8 3.1 3.3 1 0.4 1.7 0.6 1.7 1.2 0 0.8-1 0.9-1.4 0.9 -1.4 0-2.2-1.1-2.2-2.4H32.4"/><path class="st0" d="M159.1 81.5l0 3 0.3 0.1c0.6 0.2 1.8 0.6 3.2 0.6 1.9 0 3.9-1.1 3.9-3.3 0-1.5-0.8-2.2-1.7-2.7 -0.1-0.1-0.3-0.1-0.3-0.1 -0.4-0.2-0.8-0.3-1.2-0.5 -1-0.3-1.5-0.6-1.5-1 0-0.6 0.7-0.7 0.9-0.7 1 0 1.8 0.8 1.9 1.7h1.3v-2.3l-0.3-0.1c-0.7-0.3-1.4-0.5-2.7-0.5 -2.1 0-3.4 1.2-3.4 3.1 0 2.2 1.8 2.8 3.1 3.3 1 0.4 1.7 0.6 1.7 1.2 0 0.8-1 0.9-1.4 0.9 -1.4 0-2.2-1.1-2.2-2.4H159.1"/><path class="st0" d="M51.2 84.8l0-1.3H50c0-0.7 0-7.7 0-7.7l-0.4 0C48.8 76 48 76 47.1 76h-1.4v1.2c0 0 0.8 0 1.2 0 0 0.6 0 4 0 4 0 1.4-0.5 2.3-1.5 2.3 -0.6 0-0.9-0.1-0.9-1.1v-6.6l-0.4 0C43.3 76 42.5 76 41.6 76h-1.4v1.2c0 0 0.8 0 1.2 0 0 0.6 0 4.7 0 4.7 0 2.1 1 3.1 3.2 3.1 0.9 0 1.7-0.3 2.3-0.8 0 0.1 0 0.4 0 0.6H51.2"/><path class="st0" d="M56.2 75.9C55.4 76 54.6 76 53.7 76h-1.4v1.2c0 0 0.8 0 1.2 0 0 0.6 0 5.7 0 6.4 -0.4 0-1.2 0-1.2 0v1.2h5.5v-1.2c0 0-0.8 0-1.2 0 0-0.7 0-7.7 0-7.7L56.2 75.9"/><path class="st0" d="M53.4 73.7c0 0.9 0.7 1.7 1.7 1.7 0.9 0 1.7-0.7 1.7-1.7 0-0.9-0.7-1.7-1.7-1.7C54.2 72.1 53.4 72.8 53.4 73.7"/><path class="st0" d="M74.7 83.6c0-0.7 0.6-1.3 1.3-1.3 0.7 0 1.3 0.6 1.3 1.3 0 0.7-0.6 1.3-1.3 1.3C75.3 84.8 74.7 84.3 74.7 83.6"/><path class="st0" d="M91.3 83.6c0-0.7 0.6-1.3 1.3-1.3 0.7 0 1.3 0.6 1.3 1.3 0 0.7-0.6 1.3-1.3 1.3C91.8 84.9 91.3 84.3 91.3 83.6"/><path class="st0" d="M111.1 83.7c0-0.7 0.6-1.3 1.3-1.3 0.7 0 1.3 0.6 1.3 1.3 0 0.7-0.6 1.3-1.3 1.3C111.6 85 111.1 84.4 111.1 83.7"/><path class="st0" d="M134.8 75.9c-0.8 0.1-1.7 0.1-2.5 0.1h-1.4v1.2c0 0 0.8 0 1.2 0 0 0.6 0 5.7 0 6.4 -0.3 0-1.2 0-1.2 0v1.2h5.5v-1.2c0 0-0.8 0-1.2 0 0-0.7 0-7.7 0-7.7L134.8 75.9"/><path class="st0" d="M132 73.8c0 0.9 0.7 1.7 1.7 1.7 0.9 0 1.7-0.7 1.7-1.7 0-0.9-0.7-1.7-1.7-1.7C132.7 72.1 132 72.8 132 73.8"/><path class="st0" d="M141.7 76.6c0-0.1 0-0.7 0-0.7l-0.4 0c-0.8 0.1-1.7 0.1-2.5 0.1h-1.4v1.2c0 0 0.8 0 1.2 0 0 0.6 0 5.7 0 6.4 -0.4 0-1.2 0-1.2 0v1.2h5v-1.2c0 0-0.3 0-0.7 0 0-0.6 0-4.3 0-4.3 0-1.2 0.7-1.9 1.5-1.9 0.5 0 0.9 0.1 0.9 1.2 0 0 0 4.4 0 5 -0.4 0-0.5 0-0.5 0v1.2h4.8v-1.2c0 0-0.8 0-1.2 0 0-0.6 0-4.7 0-4.7 0-1.9-1.2-3.1-3.2-3.1C143.1 75.8 142.3 76.1 141.7 76.6"/><path class="st0" d="M67.5 84.2c-2.8 0-3.1-3-3.1-5.7 0-2.6 0.4-5.6 3.1-5.6 2.8 0 3.2 3 3.2 5.6C70.7 81.2 70.3 84.2 67.5 84.2M67.5 71.6c-4.2 0-7.1 2.8-7.1 7 0 4.2 2.8 7 7.1 7 4.2 0 7.1-2.8 7.1-7C74.6 74.4 71.7 71.6 67.5 71.6z"/><path class="st0" d="M153.3 77c0.7 0 1 0.6 1 1.7 0 0 0 0.2 0 0.4 -0.5 0-1.7 0-2.2 0C152.2 78 152.4 77 153.3 77M157.6 80.4V80c0-2.5-1.7-4.2-4.2-4.2 -2.7 0-4.7 1.9-4.7 4.6 0 2.8 1.9 4.6 4.7 4.6 1.9 0 3.3-1 4-2.7l0.1-0.3 -1.1-0.5 -0.1 0.3c-0.5 1.2-1.4 1.8-2.5 1.8 -1.2 0-1.8-0.9-1.8-2.9 0 0 0-0.2 0-0.3C152.7 80.4 157.6 80.4 157.6 80.4z"/><rect x="56.8" y="2" class="st1" width="52.8" height="58.9"/><path class="st0" d="M83.2 45.7c-5.4 0-7.8-4.4-7.8-14.3 0-9.9 2.4-14.3 7.8-14.3 5.4 0 7.8 4.4 7.8 14.3C91 41.3 88.6 45.7 83.2 45.7M83.2 13c-11 0-18.7 7.6-18.7 18.4 0 11 7.5 18.5 18.7 18.5 11.2 0 18.7-7.4 18.7-18.5C101.9 20.6 94.2 13 83.2 13z"/><path class="st0" d="M109.6 60.9c-1.9 0-51 0-52.8 0 0-1.9 0-57 0-58.9 1.9 0 51 0 52.8 0C109.6 3.8 109.6 59 109.6 60.9M165.4 0H54.8v0H0v62.9h166.4V0H165.4z"/><path class="st1" d="M47.8 15.5H36.2c0 0-6.2 14.8-7.9 19.1C26.7 30.3 21 15.5 21 15.5H7.8v3.7c0 0 2.9 0 4.1 0 0 2.1 0 22.3 0 24.4 -1.2 0-4.1 0-4.1 0v3.7h10.9v-3.7c0 0-1.8 0-3.1 0 0-1.6 0-10.6 0-17.1C18.4 33.6 24 48 24 48h3.1c0 0 6.1-14.8 8.9-21.8 0 6.4 0 15.7 0 17.4 -1.3 0-2.9 0-2.9 0v3.7H49v-3.7c0 0-2.9 0-4.1 0 0-2.1 0-22.3 0-24.4 1.2 0 4.1 0 4.1 0v-3.7H47.8"/><path class="st1" d="M138.5 15.5h-17.2v3.6c0 0 2.9 0 4.1 0 0 1.7 0 22.8 0 24.4 -3.5 0-2.3 0-4.1 0l0 3.7h33.1V35h-3.2l-0.1 0.8c-0.8 6.9-6.2 7.7-10.6 7.7 0 0-4.6 0-6 0 0-1.7 0-22.8 0-24.4 0.1 0 0.6 0 4 0L138.5 15.5 138.5 15.5"/></svg>