<?xml version="1.0" encoding="utf-8"?>
<!-- Generator: Adobe Illustrator 27.2.0, SVG Export Plug-In . SVG Version: 6.00 Build 0)  -->
<svg version="1.1" id="Layer_1" xmlns="http://www.w3.org/2000/svg" xmlns:xlink="http://www.w3.org/1999/xlink" x="0px"
  y="0px" viewBox="0 0 359.3 429.7" style="enable-background:new 0 0 359.3 429.7;" xml:space="preserve">
  <style type="text/css">
    .st0 {
      fill: #040F1E;
      stroke: #8984ab;
      stroke-width: 15;
      stroke-linecap: round;
      stroke-linejoin: round;
      stroke-miterlimit: 10;
    }

    .st1 {
      fill: #090F09;
      stroke: #8984ab;
      stroke-width: 4;
    }

    .st2 {
      fill: url(#SVGID_1_);
      stroke: #060607;
      stroke-width: 8;
      stroke-miterlimit: 10;
    }

    .st3 {
      fill: #9E2570;
      stroke: #090616;
      stroke-width: 8;
      stroke-linecap: round;
      stroke-linejoin: round;
      stroke-miterlimit: 10;
    }
  </style>
  <g id="lamora_00000094584779686638837170000002716925538194227121_">
    <path id="bg_00000133511137980050018260000017576330824929564040_" class="st0" d="M333,170c6.2-9.1,8.7-21,6-33
		c-5-22-25.8-36-46.3-31.3c-10.7,2.4-19.2,9.4-24.2,18.6c-8.3-7.2-19.4-10.8-30.7-8.9c-11.5,2-20.8,9.2-26.3,19.1
		c-6.5-11.8-18.3-19.7-31.8-19.7c-14.6,0-27.2,9.2-33.3,22.7c-5.1-11.3-15.1-19.9-27.7-22c-10.4-1.8-20.7,1.1-28.7,7.3
		c-5.1-8.4-13.2-14.7-23.3-17c-20.6-4.7-41.3,9.3-46.3,31.3c-2.7,12-0.2,23.9,6,33c-11,8.1-17.5,22.1-16.1,37.3
		c1.5,16.3,11.9,29.5,25.5,34.7c-8.2,9.3-11.9,22.8-8.9,36.4c4,18.2,18.8,31,35.5,32.3c-2.6,5.2-4.1,11.1-4.3,17.3
		c-0.8,22.5,15.6,41.4,36.7,42.2c0.4,0,0.9,0,1.3,0c-0.5,22,15.5,40.5,36.3,41.5c7.3,0.3,14.3-1.5,20.3-5.1
		c6.8,8,16.5,13.1,27.3,13.1c11.3,0,21.4-5.5,28.2-14.3c6.4,4.3,14.1,6.7,22.2,6.3c20.8-1,36.8-19.5,36.3-41.6
		c20.3-1.7,35.9-20.1,35-42.1c-0.2-6.3-1.8-12.1-4.3-17.3c16.6-1.3,31.4-14.1,35.5-32.3c3-13.6-0.7-27-8.9-36.4
		c13.6-5.2,23.9-18.4,25.5-34.7C350.5,192.1,343.9,178.1,333,170z" />
    <g id="stem_00000120544008282076230350000013558397096470272182_">
      <g>
        <path class="st1" d="M196.6,167c7.7-67.6-0.6-131.4-2.4-146.5c-1.7-14.5-12.1-23.3-22.3-19.8c-10.2,3.5-16.2,7-9.7,28.5
				c11.4,37.4,17,100.9,14.9,135.6c0.5,6.3,2.8,9.2,9.1,9.6C191.2,174.9,195.8,172.7,196.6,167z" />
      </g>
    </g>
    <linearGradient id="SVGID_1_" gradientUnits="userSpaceOnUse" x1="116.9014" y1="175.2773" x2="249.3257"
      y2="-41.3259">
      <stop offset="4.267132e-02" style="stop-color:#ECDC82" />
      <stop offset="0.3341" style="stop-color:#AD902D" />
      <stop offset="0.3896" style="stop-color:#C4AB4C" />
      <stop offset="0.4552" style="stop-color:#DAC669" />
      <stop offset="0.5117" style="stop-color:#E7D67C" />
      <stop offset="0.5521" style="stop-color:#ECDC82" />
      <stop offset="0.7345" style="stop-color:#ECDC82" />
      <stop offset="0.851" style="stop-color:#363636" />
    </linearGradient>
    <path class="st2" d="M85.3,132.3l-37.1-78c14.6,7.1,26.4,23.7,33.1,25c14.3,2.8,16.3,6.8,25.2,13c1.1-9.3,9.2-12.2,11.3-22.7
		c1.4-7.2-9.1-29-3.5-37.2c1.8,5.9,13.2,17,19.5,23.5c12,12.4,17,26,19.2,33.6c0.8-4.5,2.3-10.4,4.9-17c3.7-9.2,8.1-15.3,9.2-16.9
		c5.4-7.8,38.3-25.3,38.3-25.3c-8,16-10.5,41.1-6.3,48.1c7.2,12.3,8.6,12.4,17.7,14.8c9.5-6,11.6-6.1,18.3-19.2
		c3.7-7.2,4.3-20.5,3.9-39.3c3.4,4.3,16.6,14.6,19.4,24.6c4.5,16.2,0.8,29.8-1,35.5c10.9-6.8,29.6-11.1,33.9-23.1
		c3.9-10.8,17.8-13.6,25.7-20.3l-11.1,29.4L287.2,130L85.3,132.3z" />
    <g id="berries_00000046325231011414041990000006857835958115712680_">
      <path class="st3" d="M266.3,369.2c1.1,22.5-15.2,41.6-36.2,42.5c-21.1,1-39-16.5-40.1-39c-1.1-22.5,15.2-41.6,36.2-42.5
			C247.3,329.3,265.3,346.7,266.3,369.2z" />
      <path class="st3" d="M95.9,369.2c-1.1,22.5,15.2,41.5,36.2,42.5c21.1,1,39-16.5,40.1-39c1.1-22.5-15.2-41.6-36.2-42.5
			C114.9,329.3,96.9,346.7,95.9,369.2z" />
      <path class="st3" d="M142.5,378.9c0,22.5,16.6,40.8,37.2,40.8c20.5,0,37.2-18.3,37.2-40.8c0-22.5-16.6-40.8-37.2-40.8
			C159.1,338.1,142.5,356.4,142.5,378.9z" />
      <path class="st3" d="M57.9,328.1c-0.8,22.5,15.6,41.4,36.7,42.2c21.1,0.8,38.9-16.8,39.7-39.4c0.8-22.5-15.6-41.4-36.7-42.2
			C76.5,287.9,58.7,305.5,57.9,328.1z" />
      <path class="st3" d="M112.9,334.6c3,22.3,21.9,38.2,42.2,35.5c20.3-2.7,34.4-23,31.4-45.4c-3-22.3-21.9-38.2-42.2-35.5
			C124,292,109.9,312.3,112.9,334.6z" />
      <path class="st3" d="M301.4,328.1c0.8,22.5-15.6,41.4-36.7,42.2c-21.1,0.8-38.9-16.8-39.7-39.4c-0.8-22.5,15.6-41.4,36.7-42.2
			C282.8,287.9,300.6,305.5,301.4,328.1z" />
      <path class="st3" d="M246.4,334.6c-3,22.3-21.9,38.2-42.2,35.5c-20.3-2.7-34.4-23-31.4-45.4c3-22.3,21.9-38.2,42.2-35.5
			C235.3,292,249.4,312.3,246.4,334.6z" />
      <path class="st3" d="M332.5,278.4c-4.9,22-25.5,36.1-46.1,31.6c-20.6-4.5-33.4-26.1-28.5-48.1c4.9-22,25.5-36.1,46.1-31.6
			C324.6,234.9,337.4,256.4,332.5,278.4z" />
      <path class="st3" d="M281.9,274.6c1.1,22.5-15.2,41.6-36.2,42.5c-21.1,1-39-16.5-40.1-39c-1.1-22.5,15.2-41.6,36.3-42.5
			C262.9,234.6,280.8,252.1,281.9,274.6z" />
      <path class="st3" d="M26.8,278.4c4.9,22,25.5,36.1,46.1,31.6c20.6-4.5,33.4-26.1,28.5-48.1c-4.9-22-25.5-36.1-46.1-31.6
			C34.7,234.9,21.9,256.4,26.8,278.4z" />
      <path class="st3" d="M77.4,274.6c-1.1,22.5,15.2,41.6,36.2,42.5c21.1,1,39-16.5,40.1-39c1.1-22.5-15.2-41.6-36.3-42.5
			C96.4,234.6,78.5,252.1,77.4,274.6z" />
      <path class="st3" d="M142.5,286.2c0,22.5,16.6,40.8,37.2,40.8c20.5,0,37.2-18.3,37.2-40.8c0-22.5-16.6-40.8-37.2-40.8
			C159.1,245.4,142.5,263.6,142.5,286.2z" />
      <path class="st3" d="M349.1,207.3c-2.1,22.4-20.9,39-41.9,37c-21-2-36.3-21.8-34.2-44.2c2.1-22.4,20.9-39,41.9-37
			C335.9,165.1,351.2,184.9,349.1,207.3z" />
      <path class="st3" d="M305.6,208.8c3.8,22.2-10,43.1-30.8,46.7c-20.8,3.6-40.7-11.6-44.5-33.8c-3.8-22.2,10-43.1,30.8-46.7
			C281.8,171.5,301.8,186.6,305.6,208.8z" />
      <path class="st3" d="M10.2,207.3c2.1,22.4,20.9,39,41.9,37c21-2,36.3-21.8,34.2-44.2c-2.1-22.4-20.9-39-41.9-37
			C23.4,165.1,8.1,184.9,10.2,207.3z" />
      <path class="st3" d="M53.7,208.8c-3.8,22.2,10,43.1,30.8,46.7c20.8,3.6,40.7-11.6,44.5-33.8c3.8-22.2-10-43.1-30.8-46.7
			C77.5,171.5,57.5,186.6,53.7,208.8z" />
      <path class="st3" d="M247.4,222.2c0,22.5-16.6,40.8-37.2,40.8c-20.5,0-37.2-18.3-37.2-40.8s16.6-40.8,37.2-40.8
			C230.8,181.4,247.4,199.6,247.4,222.2z" />
      <path class="st3" d="M111.9,222.2c0,22.5,16.6,40.8,37.2,40.8c20.5,0,37.2-18.3,37.2-40.8c0-22.5-16.6-40.8-37.2-40.8
			C128.5,181.4,111.9,199.6,111.9,222.2z" />
      <path class="st3" d="M339,137c5,22-7.6,43.6-28.1,48.3c-20.6,4.7-41.3-9.3-46.3-31.3c-5-22,7.6-43.6,28.1-48.3
			C313.2,101.1,334,115.1,339,137z" />
      <path class="st3" d="M282.3,149.2c3.8,22.2-10,43.1-30.8,46.7c-20.8,3.6-40.7-11.6-44.5-33.8c-3.8-22.2,10-43.1,30.8-46.7
			C258.5,111.9,278.5,127,282.3,149.2z" />
      <path class="st3" d="M20.3,137c-5,22,7.6,43.6,28.1,48.3C69,190,89.8,176,94.8,154c5-22-7.6-43.6-28.1-48.3
			C46.1,101.1,25.3,115.1,20.3,137z" />
      <path class="st3" d="M74.1,149.2c-3.8,22.2,10,43.1,30.8,46.7c20.8,3.6,40.7-11.6,44.5-33.8c3.8-22.2-10-43.1-30.8-46.7
			C97.8,111.9,77.9,127,74.1,149.2z" />
      <path class="st3" d="M142.5,155.6c0,22.5,16.6,40.8,37.2,40.8c20.5,0,37.2-18.3,37.2-40.8c0-22.5-16.6-40.8-37.2-40.8
			C159.1,114.8,142.5,133.1,142.5,155.6z" />
    </g>
  </g>
</svg>
