<?xml version="1.0" encoding="utf-8"?>
<!-- Generator: Adobe Illustrator 27.2.0, SVG Export Plug-In . SVG Version: 6.00 Build 0)  -->
<svg version="1.1" id="nameLayer" xmlns="http://www.w3.org/2000/svg" xmlns:xlink="http://www.w3.org/1999/xlink" x="0px" y="0px"
	 viewBox="0 0 924.55 815.85" style="enable-background:new 0 0 924.55 815.85;" xml:space="preserve">
<style type="text/css">
	.st0{fill:#FFFFFF;}
</style>
<g id="nameGroup">
	<path id="morales_00000162320793014606456330000017105574114319878043_" class="st0" d="M352.38,51.59l255.65,441.14
		c13.36,23.05,46.73,22.79,59.72-0.47l9.07-16.23c5.87-10.51,5.82-23.33-0.15-33.79L498.29,129.72
		c-13.09-22.94,3.51-51.45,29.92-51.39l5.64,0.01c12.54,0.03,24.08,6.89,30.08,17.91l132.08,242.19
		c12.82,23.5,46.39,23.97,59.86,0.83v0c5.91-10.15,6.22-22.62,0.83-33.06l-93.1-180.18c-11.76-22.76,4.63-49.93,30.25-50.13
		l44.11-0.35c26.73-0.21,43.45,28.84,29.84,51.85l-14.85,25.11c-5.87,9.93-6.37,22.15-1.33,32.52l8.41,17.29
		c11.7,24.05,45.17,26.1,59.72,3.67l99.2-152.95C933.79,30.2,917.38,0,890.14,0H382.11C355.63,0,339.11,28.68,352.38,51.59z"/>
	<path id="kevin" class="st0" d="M24.05,0h59.79c8.6,0,16.55,4.6,20.83,12.06l129.96,226.43c10.58,18.43,38.13,15.05,43.93-5.39l0,0
		c1.78-6.28,0.94-13.01-2.35-18.65L172.38,36.1C163.06,20.09,174.61,0,193.14,0h60.41c8.57,0,16.5,4.57,20.79,11.99l108.24,187.14
		c4.19,7.24,4.31,16.13,0.32,23.48l-32.91,60.66c-9.19,16.95,4.32,37.27,23.51,35.35l56.94-5.71c9.37-0.94,18.43,3.69,23.17,11.84
		l149.12,256.76c4.29,7.38,4.33,16.49,0.12,23.91l-28.38,50.05c-9.15,16.13-32.34,16.25-41.65,0.22L395.99,420.38
		c-4.52-7.78-13.01-12.38-22-11.91l-1.25,0.06c-17.93,0.92-28.55,20.48-19.55,36.02l164.38,283.86c4.27,7.37,4.31,16.46,0.11,23.87
		l-29.1,51.38c-9.15,16.16-32.4,16.26-41.7,0.18L3.26,36.03C-5.99,20.02,5.56,0,24.05,0z"/>
</g>
</svg>
