<?xml version="1.0" standalone="no"?>
<!DOCTYPE svg PUBLIC "-//W3C//DTD SVG 20010904//EN"
 "http://www.w3.org/TR/2001/REC-SVG-20010904/DTD/svg10.dtd">
<svg version="1.0" xmlns="http://www.w3.org/2000/svg"
 width="925.000000pt" height="925.000000pt" viewBox="0 0 925.000000 925.000000"
 preserveAspectRatio="xMidYMid meet">
<metadata>
Created by potrace 1.14, written by Peter Selinger 2001-2017
</metadata>
<g transform="translate(0.000000,925.000000) scale(0.100000,-0.100000)"
fill="#000000" stroke="none">
<path d="M170 8697 c-60 -20 -96 -47 -131 -101 -31 -47 -34 -57 -33 -126 0
-69 3 -80 41 -145 42 -73 68 -118 111 -195 13 -25 28 -49 32 -55 4 -5 17 -26
27 -45 11 -19 46 -80 78 -135 32 -55 68 -119 81 -142 13 -23 53 -92 89 -153
36 -61 65 -115 65 -121 0 -5 5 -9 10 -9 6 0 10 -5 10 -10 0 -6 18 -40 40 -76
22 -36 40 -70 40 -74 0 -4 7 -13 15 -20 8 -7 15 -21 15 -30 0 -10 4 -20 8 -22
6 -2 150 -245 264 -445 47 -84 62 -110 79 -138 11 -16 22 -37 26 -45 4 -8 26
-48 50 -88 24 -40 43 -77 43 -82 0 -6 5 -10 10 -10 6 0 10 -4 10 -9 0 -5 20
-44 45 -85 25 -42 45 -79 45 -81 0 -3 15 -28 33 -57 19 -29 51 -84 72 -123 20
-38 42 -76 48 -83 15 -19 56 -94 68 -124 6 -16 14 -28 17 -28 4 0 18 -21 31
-47 14 -27 32 -59 41 -73 10 -14 31 -50 47 -80 29 -53 146 -255 268 -465 32
-55 68 -116 79 -136 67 -117 84 -147 103 -180 11 -19 98 -170 193 -335 290
-501 340 -588 351 -604 5 -8 17 -32 26 -52 9 -21 20 -38 25 -38 4 0 8 -7 8
-15 0 -8 5 -15 10 -15 6 0 10 -4 10 -10 0 -5 41 -80 90 -166 50 -85 90 -159
90 -165 0 -5 5 -9 10 -9 6 0 10 -6 10 -14 0 -7 7 -19 15 -26 9 -7 13 -15 11
-18 -3 -2 4 -16 14 -30 11 -13 20 -29 20 -34 0 -5 5 -14 10 -21 18 -21 210
-357 210 -367 0 -6 5 -10 10 -10 6 0 10 -5 10 -10 0 -6 11 -27 23 -48 13 -20
35 -58 49 -83 45 -80 53 -94 58 -99 3 -3 13 -21 23 -40 32 -61 52 -95 57 -100
3 -3 17 -26 30 -53 14 -26 28 -47 32 -47 5 0 8 -6 8 -13 0 -8 22 -51 50 -96
27 -45 50 -87 50 -92 0 -5 3 -9 8 -9 4 0 12 -10 18 -23 22 -45 77 -143 95
-169 11 -14 19 -28 19 -31 0 -3 20 -40 45 -81 25 -42 45 -79 45 -83 0 -4 6
-14 14 -22 7 -9 24 -36 37 -61 13 -25 26 -47 29 -50 3 -3 14 -23 26 -45 12
-22 45 -80 74 -130 29 -49 64 -110 78 -135 14 -25 36 -62 49 -82 12 -21 23
-42 23 -48 0 -5 4 -10 8 -10 4 0 13 -12 20 -28 6 -15 25 -49 42 -77 45 -76 68
-117 82 -148 7 -15 16 -27 20 -27 4 0 8 -4 8 -9 0 -19 204 -357 229 -378 91
-79 228 -80 317 -3 28 24 91 122 142 220 13 25 41 74 62 110 21 36 48 85 61
110 12 25 25 47 28 50 8 7 31 46 53 93 27 54 34 129 17 180 -8 23 -49 103 -93
177 -43 74 -93 160 -109 190 -17 30 -38 66 -47 80 -9 14 -20 32 -23 40 -4 8
-18 33 -31 55 -14 22 -31 51 -39 65 -40 74 -293 509 -308 532 -11 15 -19 29
-19 32 0 3 -36 66 -80 142 -44 75 -80 140 -80 145 0 5 -4 9 -9 9 -5 0 -13 9
-16 20 -4 11 -23 48 -44 83 -21 34 -49 82 -63 107 -14 25 -41 72 -60 105 -19
33 -75 130 -123 215 -49 85 -92 157 -95 160 -3 3 -16 24 -27 47 -28 54 -47 87
-53 93 -5 5 -13 19 -58 99 -14 25 -71 125 -127 221 -56 96 -108 186 -116 200
-8 14 -16 27 -19 30 -3 3 -16 29 -30 59 -118 258 202 474 399 270 23 -23 41
-48 41 -55 0 -8 5 -14 10 -14 6 0 10 -4 10 -9 0 -6 45 -87 100 -181 55 -94
100 -175 100 -181 0 -5 4 -9 9 -9 5 0 15 -15 22 -32 7 -18 26 -52 41 -74 15
-23 28 -47 28 -53 0 -6 5 -11 10 -11 6 0 10 -4 10 -9 0 -7 98 -182 140 -251
11 -18 94 -160 122 -208 10 -18 59 -103 108 -187 50 -85 90 -159 90 -165 0 -5
4 -10 9 -10 5 0 11 -8 15 -17 6 -19 20 -44 74 -132 19 -30 38 -64 43 -77 4
-13 13 -24 19 -24 5 0 10 -7 10 -15 0 -8 16 -39 35 -69 19 -30 35 -58 35 -61
0 -4 13 -25 28 -48 16 -23 35 -57 43 -75 8 -17 17 -32 21 -32 5 0 8 -5 8 -10
0 -6 16 -36 35 -66 19 -30 35 -58 35 -63 0 -5 6 -16 13 -23 6 -8 20 -29 30
-48 34 -64 52 -95 57 -100 3 -3 12 -18 20 -35 18 -36 24 -45 71 -97 89 -99
266 -94 348 11 25 32 231 387 231 398 0 3 8 17 18 31 99 142 117 248 61 350
-29 51 -202 350 -255 441 -24 40 -44 77 -44 82 0 5 -3 9 -8 9 -4 0 -13 15 -21
33 -8 17 -26 50 -40 72 -40 63 -71 118 -78 138 -3 9 -9 17 -14 17 -5 0 -9 4
-9 10 0 5 -39 76 -87 157 -47 81 -100 173 -116 203 -17 30 -33 57 -36 60 -4 3
-12 16 -19 30 -7 14 -22 41 -33 60 -12 19 -29 49 -38 65 -9 17 -24 41 -33 55
-9 14 -26 44 -39 67 -13 22 -48 83 -77 133 -28 51 -52 96 -52 101 0 4 -4 9 -8
11 -7 3 -60 91 -118 198 -10 19 -21 37 -24 40 -3 3 -10 15 -17 27 -22 38 -200
347 -222 383 -11 19 -24 42 -28 50 -3 8 -9 17 -13 20 -3 3 -17 27 -30 53 -59
115 -132 168 -237 172 -35 2 -63 0 -63 -4 0 -3 -21 -6 -48 -7 -47 0 -150 -9
-227 -19 -158 -21 -308 -28 -351 -16 -55 15 -122 75 -149 134 -35 75 -28 143
27 248 23 46 45 86 48 89 3 3 16 28 30 55 14 28 27 52 30 55 4 3 15 23 26 45
11 22 42 81 69 130 26 50 58 109 70 132 12 23 27 49 34 57 18 21 24 54 25 126
0 68 -9 91 -84 215 -17 28 -35 59 -40 70 -6 11 -14 27 -19 35 -31 47 -181 309
-181 315 0 3 -8 18 -18 33 -21 30 -77 124 -112 187 -70 125 -115 202 -127 216
-7 9 -10 19 -6 22 3 4 1 7 -5 7 -7 0 -12 4 -12 9 0 12 -83 155 -92 159 -5 2
-8 8 -8 14 0 5 -15 35 -34 66 -46 76 -83 142 -98 172 -7 14 -15 27 -19 30 -3
3 -25 41 -49 85 -24 44 -46 82 -49 85 -3 3 -13 19 -21 35 -8 17 -17 32 -20 35
-3 3 -14 23 -25 45 -11 22 -23 42 -26 45 -4 3 -19 30 -35 60 -43 83 -112 146
-176 160 -52 11 -704 10 -738 -1 -66 -22 -126 -80 -152 -146 -18 -48 -18 -147
0 -165 7 -7 12 -20 12 -30 0 -10 5 -18 10 -18 6 0 10 -9 10 -19 0 -11 3 -21 8
-23 7 -3 82 -125 82 -133 0 -2 22 -40 50 -84 28 -44 50 -82 50 -84 0 -3 30
-56 68 -118 37 -63 79 -135 92 -161 14 -27 28 -48 32 -48 5 0 8 -4 8 -9 0 -5
30 -60 66 -122 37 -63 82 -141 101 -174 19 -33 42 -73 52 -90 10 -16 27 -46
38 -65 25 -43 81 -140 126 -217 19 -32 60 -103 92 -158 32 -55 82 -142 113
-194 79 -134 92 -195 62 -285 -20 -61 -131 -159 -160 -141 -5 3 -11 1 -15 -4
-11 -19 -123 -4 -167 22 -59 34 -71 49 -143 183 -13 22 -35 59 -49 82 -14 23
-26 45 -26 50 0 4 -7 17 -15 27 -8 11 -59 97 -112 190 -53 94 -100 172 -105
173 -4 2 -8 10 -8 18 0 12 -24 55 -78 139 -6 11 -16 29 -22 40 -5 11 -24 46
-42 77 -142 246 -178 310 -178 318 0 4 -4 10 -8 12 -4 2 -42 64 -84 138 -42
74 -135 239 -208 365 -73 127 -146 255 -163 285 -17 30 -38 67 -49 82 -10 14
-18 28 -18 31 0 13 -106 184 -125 200 -11 10 -42 29 -70 42 l-50 25 -340 -1
c-232 0 -351 -4 -375 -12z"/>
<path d="M3725 8696 c-57 -18 -105 -45 -105 -58 0 -6 -3 -9 -6 -5 -10 10 -73
-65 -99 -118 -34 -69 -44 -141 -30 -215 8 -41 85 -200 97 -200 4 0 8 -4 8 -9
0 -5 23 -49 51 -98 67 -114 84 -145 110 -190 12 -21 25 -42 29 -48 4 -5 20
-32 35 -60 15 -27 37 -66 49 -86 11 -20 35 -61 52 -90 17 -30 40 -70 51 -89
92 -157 123 -213 123 -221 0 -5 4 -9 8 -9 4 0 20 -24 35 -52 43 -81 104 -187
141 -247 15 -22 26 -43 26 -46 0 -2 16 -29 35 -59 19 -30 35 -57 35 -59 0 -2
52 -93 115 -202 63 -108 115 -200 115 -203 0 -3 6 -13 14 -21 7 -9 24 -36 38
-61 13 -25 36 -64 51 -87 15 -24 27 -45 27 -47 0 -5 201 -353 228 -396 9 -14
15 -28 14 -32 -1 -5 2 -8 8 -8 5 0 10 -4 10 -9 0 -5 36 -70 80 -145 44 -76 80
-139 80 -141 0 -2 14 -24 30 -48 17 -25 30 -48 30 -51 0 -4 12 -25 27 -49 15
-23 28 -49 29 -57 2 -8 8 -16 13 -18 6 -2 11 -10 11 -18 0 -8 5 -14 10 -14 6
0 10 -4 10 -9 0 -5 23 -48 50 -96 28 -48 50 -91 50 -96 0 -5 4 -9 9 -9 5 0 11
-8 14 -17 3 -10 19 -39 34 -65 28 -46 149 -253 184 -315 10 -17 29 -50 43 -72
15 -22 26 -42 26 -45 0 -2 29 -54 65 -115 36 -62 65 -116 65 -121 0 -4 4 -10
8 -12 5 -1 22 -28 39 -58 40 -72 72 -128 94 -165 11 -16 26 -43 34 -60 25 -49
78 -130 106 -163 32 -37 125 -91 170 -98 81 -12 105 -13 146 -4 136 31 201 95
301 295 8 17 21 37 28 45 19 23 40 119 38 175 -3 77 -39 162 -124 295 -6 8
-18 31 -28 50 -9 19 -20 37 -24 38 -5 2 -8 8 -8 14 0 6 -17 38 -38 72 -21 34
-43 72 -50 86 -7 14 -18 34 -25 45 -7 11 -32 56 -57 100 -25 44 -50 89 -57
100 -7 11 -19 34 -28 50 -9 17 -29 53 -46 80 -16 28 -34 59 -39 70 -6 11 -24
43 -41 70 -16 28 -35 61 -42 75 -6 14 -14 27 -17 30 -7 7 -29 42 -37 60 -6 14
-50 91 -220 390 -30 52 -62 109 -72 125 -10 17 -29 50 -43 75 -23 42 -34 61
-88 155 -54 95 -65 113 -88 155 -14 25 -49 87 -79 138 -29 51 -53 97 -53 102
0 6 -4 10 -9 10 -5 0 -11 8 -15 18 -3 9 -16 35 -29 57 -13 22 -36 63 -52 90
-15 28 -53 93 -83 145 -30 52 -66 115 -80 140 -26 48 -108 191 -203 355 -32
56 -64 119 -73 140 -19 50 -35 122 -28 129 2 3 6 23 7 44 5 89 90 213 176 258
19 9 57 23 84 29 55 13 187 12 225 -1 14 -4 27 -8 30 -9 38 -7 160 -103 160
-126 0 -4 6 -14 13 -21 6 -7 21 -31 33 -53 11 -22 38 -71 59 -110 21 -38 51
-95 68 -125 34 -63 74 -137 116 -212 15 -29 44 -82 63 -118 20 -36 77 -141
128 -235 51 -93 109 -199 128 -235 20 -36 51 -92 69 -125 18 -33 38 -71 45
-85 7 -14 15 -27 18 -30 3 -3 17 -27 31 -55 14 -27 43 -81 64 -120 21 -38 55
-102 76 -141 21 -39 54 -99 74 -135 20 -35 43 -81 52 -101 9 -21 19 -38 23
-38 4 0 14 -15 21 -32 7 -18 39 -80 71 -137 32 -57 58 -107 58 -111 0 -5 3
-10 8 -12 4 -1 21 -30 38 -63 75 -145 102 -190 142 -236 24 -27 50 -49 57 -49
7 0 15 -4 17 -9 8 -21 115 -49 183 -47 179 6 312 133 331 316 9 80 -16 160
-88 283 -15 26 -25 47 -22 47 4 0 2 6 -4 13 -6 7 -48 85 -93 172 -45 88 -109
214 -144 280 -86 166 -115 224 -116 232 0 5 -6 15 -13 23 -6 8 -23 39 -36 67
-14 29 -28 53 -32 53 -5 0 -8 8 -8 18 0 10 -4 22 -9 28 -5 5 -46 81 -91 169
-45 88 -85 165 -88 170 -4 6 -7 16 -8 23 -1 7 -8 19 -14 27 -7 8 -38 65 -69
127 -32 62 -77 149 -99 193 -23 44 -48 99 -56 122 -16 46 -15 176 1 208 6 11
18 36 28 55 21 42 94 120 112 120 7 0 13 4 13 9 0 12 65 37 115 45 22 3 155 7
295 8 274 2 340 -7 387 -52 12 -11 25 -20 29 -20 16 0 75 -75 101 -128 22 -46
28 -71 28 -127 0 -85 -7 -135 -17 -135 -4 0 -8 -9 -8 -20 0 -11 -4 -20 -9 -20
-5 0 -12 -11 -15 -24 -3 -14 -12 -31 -19 -38 -7 -7 -26 -38 -43 -68 -16 -30
-31 -57 -35 -60 -12 -11 -67 -117 -78 -152 -14 -43 -17 -115 -7 -172 11 -68
130 -298 178 -345 39 -37 108 -79 148 -89 35 -9 157 -9 185 0 110 36 158 83
285 281 52 81 132 204 178 273 45 69 82 128 82 133 0 4 8 16 18 27 10 10 31
41 47 68 17 27 38 60 47 75 10 14 23 36 29 49 7 12 16 22 21 22 4 0 8 6 8 14
0 8 6 21 14 28 7 8 36 50 63 93 28 44 93 145 144 225 52 80 115 177 139 215
25 39 48 75 53 80 23 30 90 140 92 154 2 9 4 16 5 16 5 0 13 49 15 103 6 111
-35 197 -135 285 -14 12 -79 45 -110 56 -8 3 -1189 6 -2625 8 -2080 1 -2618
-1 -2650 -11z"/>
</g>
</svg>
