<svg xmlns="http://www.w3.org/2000/svg" id="IEP_Logo" viewBox="0 0 200.8 36.3"><style>.st0{fill:#fff;} .st1{fill:none;stroke:#005596;stroke-width:4;stroke-miterlimit:10;} .st2{fill:#8B0304;}</style><path d="M41 32l1.3-5.7h1.1l-.5 2.3H45l.5-2.3h1.1L45.3 32h-1.1l.5-2.4h-2.2l-.4 2.4H41zM48.6 32.1c-1.5 0-2.1-1.1-1.7-2.9s1.5-2.9 3-2.9 2.1 1.1 1.7 2.9c-.4 1.8-1.4 2.9-3 2.9zm1.1-4.9c-.9 0-1.4.7-1.7 2-.3 1.3 0 2 .9 2s1.4-.7 1.7-2c.3-1.4 0-2-.9-2zM52 32l1.3-5.7H57l-.2.9h-2.7l-.3 1.4h1.9l-.2.9h-1.9l-.4 1.6H56l-.2.9H52zM56.8 32l1.3-5.7h2.3c1.3 0 1.6.7 1.4 1.7-.1.7-.6 1.3-1.4 1.5l.7 2.5h-1.2l-.6-2.3h-.9l-.5 2.3h-1.1zm1.8-3.2h.8c.8 0 1.2-.3 1.3-.8.1-.5-.1-.8-.7-.8h-1l-.4 1.6zM63.4 26.3h2.1c1.1 0 1.8.4 1.6 1.4-.1.6-.5 1-1.1 1.3.7.3.8.6.7 1.5-.2.9-.9 1.5-2.4 1.5h-2.1l1.2-5.7zm0 4.8h1.1c.6 0 1-.3 1.1-.8.1-.5-.1-.8-.7-.8h-1.1l-.4 1.6zm.5-2.5H65c.5 0 .8-.3.9-.7.1-.4-.1-.7-.6-.7h-1.1l-.3 1.4zM67.5 32l1.3-5.7h1.1L68.6 32h-1.1zM74 28c-.1-.6-.4-.8-1-.8-.8 0-1.4.8-1.6 2.1-.3 1.2 0 1.9.8 1.9.7 0 1.3-.5 1.4-1.1h-1.1l.2-.9h2.1l-.6 2.8h-.8l.1-.6c-.6.5-1 .7-1.6.7-1.5 0-2-1.2-1.6-2.8.3-1.4 1.2-3 3-3 1.1 0 1.7.6 1.7 1.4l-1 .3zM75.4 32l1.3-5.7h3.8l-.2.9h-2.7l-.3 1.4h1.9l-.2.9h-2l-.4 1.6h2.8l-.2.9h-3.8zM80.2 32l1.3-5.7h2.3c1.3 0 1.6.7 1.4 1.7-.1.7-.6 1.3-1.4 1.5l.7 2.5h-1.2l-.6-2.3h-.9l-.5 2.3h-1.1zm1.8-3.2h.8c.8 0 1.2-.3 1.3-.8.1-.5-.1-.8-.7-.8h-1l-.4 1.6zM91.6 27.8c-.1-.4-.3-.7-.8-.7s-.9.2-.9.6c-.2 1 2.7.8 2.3 2.6-.3 1.2-1.1 1.7-2.4 1.7-.9 0-1.7-.5-1.8-1.3l1-.4c.1.5.4.9 1 .9.5 0 1-.2 1.1-.8.2-1.1-2.7-.9-2.3-2.6.2-1 1.2-1.6 2.2-1.6.9 0 1.6.5 1.7 1.3l-1.1.3zM94.8 32v-.4c-.5.3-.9.4-1.4.4-.7 0-1-.5-.9-1.1.2-.9 1.1-1.4 2.7-1.6l.1-.3c.1-.3-.1-.5-.5-.5-.5 0-.8.2-1 .5l-.5-.5c.3-.4 1.1-.8 1.7-.7 1.1 0 1.5.4 1.2 1.6l-.4 1.9c0 .2-.1.4-.1.6h-.9zm.3-1.9c-.7.1-1.4.3-1.5.8-.1.3.1.5.4.5.3 0 .7-.3 1-.4l.1-.9zM98.6 28.7l-.8 3.3h-1l.7-3.3H97l.2-.8h.6l.1-.5c.2-.9.6-1.2 1.4-1.2h.6l-.2.8h-.3c-.4 0-.6.1-.6.4l-.1.4h.8l-.2.8h-.7zM100.4 30.1c-.2.8.1 1.2.6 1.2s.7-.2 1-.5l.6.4c-.5.6-1.1.8-1.9.8-1.1 0-1.5-.8-1.3-2.1.3-1.3 1.1-2.1 2.2-2.1s1.5.9 1.2 1.9l-.1.4h-2.3zm1.8-.6c.1-.6-.1-.9-.6-.9s-.8.3-1 .9h1.6zM104.4 27.9l.3-1.4h1l-.3 1.4h.8l-.2.8h-.8l-.5 2.3c0 .2 0 .3.3.3.1 0 .3 0 .5-.1l-.2.8c-.3 0-.5.1-.8.1-.7 0-.9-.4-.8-.9l.5-2.4h-.6l.2-.8h.6zM105.7 32.7h.4c.3 0 .5-.1.7-.3.1-.2.2-.3.3-.5v-.5l-.3-3.5h1l.1 2.5 1.3-2.5h1L108 32c-.7 1.2-1.1 1.5-1.9 1.5h-.5l.1-.8zM115.7 27.8c-.1-.4-.3-.7-.8-.7s-.9.2-.9.6c-.2 1 2.7.8 2.3 2.6-.3 1.2-1.1 1.7-2.4 1.7-.9 0-1.7-.5-1.8-1.3l1-.4c.1.5.4.9 1 .9.5 0 1-.2 1.1-.8.2-1.1-2.7-.9-2.3-2.6.2-1 1.2-1.6 2.2-1.6.9 0 1.6.5 1.7 1.3l-1.1.3zM119.3 27.8c1.1 0 1.6.8 1.3 2.1-.3 1.3-1.1 2.1-2.2 2.1s-1.6-.8-1.3-2.1c.2-1.2 1.1-2.1 2.2-2.1zm-.2.8c-.5 0-.9.4-1.1 1.3-.2.9 0 1.3.5 1.3s.9-.4 1.1-1.3c.2-.8 0-1.3-.5-1.3zM121 32l1.3-5.7h1L122 32h-1zM127.4 27.9l-.9 4.1h-.9l.1-.4c-.4.3-.9.5-1.4.5-.8 0-1.1-.5-.9-1.4l.6-2.8h1l-.6 2.7c-.1.5 0 .7.3.7.4 0 .8-.2 1-.4l.7-2.9h1zM128.6 27.9l.3-1.4h1l-.3 1.4h.8l-.2.8h-.8l-.5 2.3c0 .2 0 .3.3.3.1 0 .3 0 .5-.1l-.2.8c-.3 0-.5.1-.8.1-.7 0-.9-.4-.8-.9l.5-2.4h-.6l.2-.8h.6zM131.3 32h-1l.9-4.1h1l-.9 4.1zm.1-4.8l.2-.9h1l-.2.9h-1zM134.8 27.8c1.1 0 1.6.8 1.3 2.1-.3 1.3-1.1 2.1-2.2 2.1s-1.6-.8-1.3-2.1c.3-1.2 1.1-2.1 2.2-2.1zm-.1.8c-.5 0-.9.4-1.1 1.3-.2.9 0 1.3.5 1.3s.9-.4 1.1-1.3c.2-.8 0-1.3-.5-1.3zM136.4 32l.9-4.1h.9l-.1.4c.4-.3.9-.5 1.4-.5.8 0 1.1.5.9 1.4l-.6 2.8h-1l.6-2.7c.1-.5 0-.7-.3-.7-.4 0-.8.2-1 .4l-.7 2.9h-1zM143.5 29c-.1-.2-.4-.4-.7-.4-.4 0-.6.2-.6.4-.2.7 2 .4 1.6 1.9-.2.8-.9 1.2-1.8 1.2-.7 0-1.1-.3-1.4-.8l.8-.5c.2.3.4.6.8.6.3 0 .6-.2.7-.5.2-.7-1.9-.4-1.6-1.9.2-.8.9-1.2 1.6-1.2.5 0 1 .2 1.3.6l-.7.6z" class="st0"/><g><path d="M49.4 13.3c-.1-1-.7-1.7-1.8-1.7-1.5 0-2.7 1.4-3.4 4.2-.6 2.8-.1 4.2 1.6 4.2 1 0 1.7-.4 2.7-1.8l2 .6c-1.2 2.1-2.9 3.1-5.1 3.1-3 0-4.3-2.2-3.4-6.1.9-3.9 3.1-6.1 6.1-6.1 2.3 0 3.4 1 3.4 3.1l-2.1.5zM54.7 14.8c1.8 0 2.6 1.4 2.2 3.5-.5 2.1-1.9 3.5-3.7 3.5-1.8 0-2.6-1.4-2.2-3.5.4-2.1 1.8-3.5 3.7-3.5zm-.3 1.3c-.9 0-1.5.7-1.8 2.2-.3 1.5-.1 2.2.8 2.2s1.5-.7 1.8-2.2c.3-1.5.1-2.2-.8-2.2zM57 21.7l1.5-6.8H60l-.2.7c.7-.6 1.3-.9 2.2-.9.7 0 1.3.3 1.4 1 .7-.6 1.4-1 2.5-1 .7 0 1.6.4 1.2 2L66 21.6h-1.6l1-4.7c.1-.5 0-.8-.6-.9-.4 0-1.1.4-1.5.7l-1.1 4.9h-1.6l1-4.7c.1-.5 0-.8-.6-.9-.4 0-1.1.4-1.5.7l-1.1 4.9H57zM69.6 12.3h1.6l-.7 3.2c.4-.4 1.3-.8 1.8-.8 1.7 0 2.3 1.7 2 3.3-.5 2.1-1.7 3.7-3.5 3.7-.7 0-1.2-.3-1.6-.9l-.3.7h-1.3l2-9.2zm-.1 7.6c.3.3.4.6 1.1.6 1 0 1.7-.8 2-2.2.3-1.4-.1-2.2-1-2.2-.5 0-1 .3-1.4.6l-.7 3.2zM81.5 14.9L80 21.7h-1.5l.2-.7c-.7.4-1.5.9-2.3.9-1.4 0-1.8-.9-1.5-2.3l1-4.6h1.6l-1 4.4c-.2.9 0 1.2.6 1.2.7 0 1.3-.4 1.7-.7l1.1-4.9h1.6zM85.8 16.7c-.2-.4-.6-.7-1.1-.7-.6 0-1 .3-1.1.7-.3 1.2 3.2.7 2.7 3.1-.3 1.4-1.5 2-2.9 2-1.1 0-1.9-.5-2.3-1.4l1.3-.8c.3.5.7 1 1.4 1 .6 0 1-.3 1.1-.8.3-1.2-3.2-.7-2.7-3.1.3-1.3 1.5-2 2.7-2 .9 0 1.7.3 2.2 1l-1.3 1zM88.7 14.9l.5-2.2h1.6l-.5 2.2h1.3l-.3 1.3H90l-.8 3.8c-.1.4.1.5.5.5.2 0 .5-.1.8-.1l-.3 1.3c-.5.1-.9.1-1.3.1-1.2 0-1.5-.6-1.3-1.6l.9-4h-.9l.3-1.3h.8zM92.8 21.7h-1.6l1.5-6.8h1.6l-1.5 6.8zm.2-8l.3-1.5h1.6l-.3 1.5H93zM98.3 14.8c1.8 0 2.6 1.4 2.2 3.5-.5 2.1-1.9 3.5-3.7 3.5s-2.6-1.4-2.2-3.5c.5-2.1 1.9-3.5 3.7-3.5zm-.3 1.3c-.9 0-1.5.7-1.8 2.2-.3 1.5-.1 2.2.8 2.2s1.5-.7 1.8-2.2c.4-1.5.1-2.2-.8-2.2zM100.6 21.7l1.5-6.8h1.5l-.2.7c.7-.4 1.5-.9 2.3-.9 1.4 0 1.8.9 1.5 2.3l-1 4.6h-1.6l1-4.4c.2-.9 0-1.2-.6-1.2-.7 0-1.3.4-1.7.7l-1.1 4.9h-1.6zM109.8 21.7l2.6-11.9h4.7c2.7 0 3.4 1.6 3 3.5-.3 1.5-1.3 2.6-2.8 3.1l1.4 5.3h-2.5l-1.2-4.8h-2l-1.1 4.8h-2.1zm3.7-6.7h1.7c1.8 0 2.4-.6 2.7-1.7s-.3-1.7-1.6-1.7h-2.1l-.7 3.4zM121.3 18.6c-.3 1.4.2 1.9 1 1.9s1.2-.3 1.7-.8l1 .7c-.8 1-1.8 1.4-3.1 1.4-1.8 0-2.6-1.4-2.1-3.5s1.9-3.5 3.7-3.5c1.8 0 2.4 1.5 2.1 3.1l-.1.7h-4.2zm2.8-1.1c.2-.9-.2-1.5-1-1.5s-1.4.5-1.6 1.5h2.6zM130.1 16.7c-.2-.4-.6-.7-1.1-.7-.6 0-1 .3-1.1.7-.3 1.2 3.2.7 2.7 3.1-.3 1.4-1.5 2-2.9 2-1.1 0-1.9-.5-2.3-1.4l1.3-.8c.3.5.7 1 1.4 1 .6 0 1-.3 1.1-.8.3-1.2-3.2-.7-2.7-3.1.3-1.3 1.5-2 2.7-2 .9 0 1.7.3 2.2 1l-1.3 1zM133 18.6c-.3 1.4.2 1.9 1 1.9s1.2-.3 1.7-.8l1 .7c-.8 1-1.8 1.4-3.1 1.4-1.8 0-2.6-1.4-2.1-3.5s1.9-3.5 3.7-3.5c1.8 0 2.4 1.5 2.1 3.1l-.1.7H133zm2.9-1.1c.2-.9-.2-1.5-1-1.5s-1.4.5-1.6 1.5h2.6zM140.9 21.7v-.6c-.7.4-1.4.7-2.3.7-1.2 0-1.6-.9-1.4-1.8.3-1.5 1.8-2.3 4.5-2.7l.1-.6c.1-.5-.2-.8-.8-.8-.8 0-1.3.4-1.7.8l-.9-.8c.6-.7 1.8-1.3 2.8-1.2 1.8 0 2.4.7 2 2.7l-.7 3.2c-.1.3-.1.7-.1 1h-1.5zm.6-3.3c-1.1.2-2.4.4-2.6 1.4-.1.5.1.8.6.8s1.2-.4 1.6-.7l.4-1.5zM143.6 21.7l1.5-6.8h1.5l-.3 1.2c.6-.8 1.2-1.3 2.2-1.3l-.4 1.7h-.3c-.8 0-1.7.9-1.7 1.1l-.9 4.1h-1.6zM152.6 17.1c-.1-.6-.3-1-1.1-1-.9 0-1.5.7-1.8 2.2-.3 1.5-.1 2.2.9 2.2.7 0 1.2-.5 1.7-1.1l1.1.7c-.9 1.2-1.8 1.7-3.1 1.7-1.8 0-2.6-1.4-2.2-3.5.5-2.1 1.9-3.5 3.7-3.5 1.3 0 2.1.7 2.3 1.8l-1.5.5zM154 21.7l2.1-9.4h1.6l-.7 3.4c.6-.4 1.3-.9 2.1-.9 1.4 0 1.8.9 1.5 2.3l-1 4.6H158l1-4.4c.2-.9 0-1.2-.6-1.2-.7 0-1.3.4-1.7.7l-1.1 4.9H154zM171.1 13.3c-.1-1-.7-1.7-1.8-1.7-1.5 0-2.7 1.4-3.4 4.2-.6 2.8-.1 4.2 1.6 4.2 1 0 1.7-.4 2.7-1.8l2 .6c-1.2 2.1-2.9 3.1-5.1 3.1-3 0-4.3-2.2-3.4-6.1.9-3.9 3.1-6.1 6.1-6.1 2.3 0 3.4 1 3.4 3.1l-2.1.5zM174.2 18.6c-.3 1.4.2 1.9 1 1.9s1.2-.3 1.7-.8l1 .7c-.8 1-1.8 1.4-3.1 1.4-1.8 0-2.6-1.4-2.1-3.5s1.9-3.5 3.7-3.5c1.8 0 2.4 1.5 2.1 3.1l-.1.7h-4.2zm2.9-1.1c.2-.9-.2-1.5-1-1.5s-1.4.5-1.6 1.5h2.6zM178.7 21.7l1.5-6.8h1.5l-.2.7c.7-.4 1.5-.9 2.3-.9 1.4 0 1.8.9 1.5 2.3l-1 4.6h-1.6l1-4.4c.2-.9 0-1.2-.6-1.2-.7 0-1.3.4-1.7.7l-1.1 4.9h-1.6zM187.4 14.9l.5-2.2h1.6l-.5 2.2h1.3l-.3 1.3h-1.3l-.8 3.8c-.1.4.1.5.5.5.2 0 .5-.1.8-.1l-.3 1.3c-.5.1-.9.1-1.3.1-1.2 0-1.5-.6-1.3-1.6l.9-4h-.9l.3-1.3h.8zM191.5 18.6c-.3 1.4.2 1.9 1 1.9s1.2-.3 1.7-.8l1 .7c-.8 1-1.8 1.4-3.1 1.4-1.8 0-2.6-1.4-2.1-3.5s1.9-3.5 3.7-3.5c1.8 0 2.4 1.5 2.1 3.1l-.1.7h-4.2zm2.8-1.1c.2-.9-.2-1.5-1-1.5s-1.4.5-1.6 1.5h2.6zM195.9 21.7l1.5-6.8h1.5l-.3 1.2c.6-.8 1.2-1.3 2.2-1.3l-.4 1.7h-.3c-.8 0-1.7.9-1.7 1.1l-.9 4.1h-1.6z" class="st0"/></g><path d="M21.7 3l11.6 8.5c1.8 1.3 2.5 3.6 1.9 5.7l-4.4 13.7c-.7 2.1-2.6 3.5-4.8 3.5H11.5c-2.2 0-4.2-1.4-4.8-3.5L2.2 17.1c-.7-2.1.1-4.4 1.9-5.7L15.7 3c1.8-1.3 4.2-1.3 6 0z" class="st1"/><path d="M11.1 21c-1 4.2 1.5 8 5.6 8.6 4.1.6 8.3-2.3 9.3-6.5.5-1.9.2-3.7-.6-5.2-1.7-3.2-.7-5-.7-5s-3.7 1.8-2.4 6.4c-2.2-1.2-2.7-4.4-1.6-6 1.7-2.4 1.7-4.5-.1-5.3.5 1.6-1.6 3-3 4.5-4.7 4.9-1.8 9.8-1.8 9.8s-2.4-.6-2.2-3.9c0-.5.5-2.1-.1-2.8 0 .5-.1 1.2-.7 1.9-.7 1-1.3 2.2-1.7 3.5z" class="st2"/></svg>