<svg xmlns="http://www.w3.org/2000/svg" viewBox="0 0 155.28 111.84">
    <style type="text/css">
    .st0 {
        fill: #0073AE;
    }
    .st1 {
        fill: url(#SVGID_1_);
    }
    .st2 {
        filter: url(#Adobe_OpacityMaskFilter);
    }
    .st3 {
        fill: url(#SVGID_3_);
    }
    .st4 {
        mask: url(#SVGID_2_);
        fill: url(#SVGID_4_);
    }
    .st5 {
        filter: url(#Adobe_OpacityMaskFilter_1_);
    }
    .st6 {
        fill: url(#SVGID_6_);
    }
    .st7 {
        mask: url(#SVGID_5_);
        fill: url(#SVGID_7_);
    }
    .st8 {
        fill: #FFFFFF;
    }
    </style>
        <path class="st0" d="M121.93 89.51c0-2.34 1.84-4.2 4.17-4.2 2.33 0 4.17 1.86 4.17 4.2 0 2.34-1.84 4.2-4.17 4.2C123.77 93.71 121.93 91.85 121.93 89.51zM122.84 89.51c0 1.87 1.46 3.29 3.26 3.29 1.8 0 3.26-1.42 3.26-3.29 0-1.88-1.46-3.29-3.26-3.29C124.29 86.23 122.84 87.63 122.84 89.51zM128.03 91.67h-0.99l-1.01-1.73h-0.76v1.73h-0.91v-4.36h2.12c1 0 1.69 0.18 1.69 1.33 0 0.8-0.41 1.24-1.18 1.29L128.03 91.67zM126.48 89.15c0.49 0 0.78-0.11 0.78-0.58 0-0.48-0.58-0.48-1-0.48h-1v1.06H126.48z" />
            <image width="647" height="466" transform="matrix(0.24 0 0 0.24 0 0)" opacity="0.6" />
                <radialGradient id="SVGID_1_" cx="405.2117" cy="236.9353" r="61.8211" gradientTransform="matrix(1 3.401518e-03 -2.206252e-03 0.6486 -327.5101 -99.1691)" gradientUnits="userSpaceOnUse">
                    <stop offset="0.4813" stop-color="#00A2E0" />
                    <stop offset="0.7933" stop-color="#0089CF" />
                    <stop offset="0.8707" stop-color="#0088CF" />
                    <stop offset="0.9052" stop-color="#0085CC" />
                    <stop offset="0.9313" stop-color="#007FC7" />
                    <stop offset="0.953" stop-color="#0077C0" />
                    <stop offset="0.9721" stop-color="#006CB7" />
                    <stop offset="0.989" stop-color="#005FAE" />
                    <stop offset="1" stop-color="#0054A6" />
                </radialGradient>
                <ellipse class="st1" cx="77.63" cy="55.89" rx="61.61" ry="39.87" />
        <defs>
            <filter id="Adobe_OpacityMaskFilter" filterUnits="userSpaceOnUse" x="16.02" y="16.02" width="123.23" height="79.74">
                <feColorMatrix type="matrix" values="1 0 0 0 0  0 1 0 0 0  0 0 1 0 0  0 0 0 1 0" />
            </filter>
        </defs>
        <mask maskUnits="userSpaceOnUse" x="16.02" y="16.02" width="123.23" height="79.74" id="SVGID_2_">
            <g class="st2">
                <radialGradient id="SVGID_3_" cx="65.4663" cy="720.7383" r="70.9206" fx="36.5291" fy="720.6961" gradientTransform="matrix(-4.489659e-11 1 -1.655 -7.430161e-11 1270.4202 -41.0543)" gradientUnits="userSpaceOnUse">
                    <stop offset="0.6641" stop-color="#000000" />
                    <stop offset="0.8655" stop-color="#FFFFFF" />
                </radialGradient>
                <ellipse class="st3" cx="77.63" cy="55.89" rx="61.62" ry="39.87" />
            </g>
        </mask>
        <radialGradient id="SVGID_4_" cx="65.4663" cy="688.9034" r="61.6724" gradientTransform="matrix(-1 0 0 -0.642 143.1005 498.4926)" gradientUnits="userSpaceOnUse">
            <stop offset="0.4663" stop-color="#00A2E0" />
            <stop offset="0.6871" stop-color="#007AC1" />
            <stop offset="0.8668" stop-color="#005FAD" />
            <stop offset="0.9533" stop-color="#0054A6" />
        </radialGradient>
        <ellipse class="st4" cx="77.63" cy="55.89" rx="61.62" ry="39.87" />
        <defs>
            <filter id="Adobe_OpacityMaskFilter_1_" filterUnits="userSpaceOnUse" x="16.02" y="16.02" width="123.23" height="79.74">
                <feColorMatrix type="matrix" values="1 0 0 0 0  0 1 0 0 0  0 0 1 0 0  0 0 0 1 0" />
            </filter>
        </defs>
        <mask maskUnits="userSpaceOnUse" x="16.02" y="16.02" width="123.23" height="79.74" id="SVGID_5_">
            <g class="st5">
                <radialGradient id="SVGID_6_" cx="405.6694" cy="268.4097" r="70.9206" fx="376.7323" fy="268.3675" gradientTransform="matrix(4.489659e-11 -1 1.4297 6.418821e-11 -306.1084 493.0304)" gradientUnits="userSpaceOnUse">
                    <stop offset="0.75" stop-color="#000000" />
                    <stop offset="0.9" stop-color="#FFFFFF" />
                </radialGradient>
                <ellipse class="st6" cx="77.63" cy="55.89" rx="61.62" ry="39.87" />
            </g>
        </mask>
        <radialGradient id="SVGID_7_" cx="405.6694" cy="236.5748" r="61.6724" gradientTransform="matrix(1 0 0 0.642 -328.0352 -96.3446)" gradientUnits="userSpaceOnUse">
            <stop offset="0.8268" stop-color="#8FD1F3" />
            <stop offset="0.8868" stop-color="#8DCFF2" />
            <stop offset="0.9135" stop-color="#87C8EE" />
            <stop offset="0.9337" stop-color="#7BBDE8" />
            <stop offset="0.9505" stop-color="#6BAEDF" />
            <stop offset="0.9653" stop-color="#579BD4" />
            <stop offset="0.9786" stop-color="#3C86C7" />
            <stop offset="0.9906" stop-color="#0772BA" />
            <stop offset="1" stop-color="#0061AF" />
        </radialGradient>
        <ellipse class="st7" cx="77.63" cy="55.89" rx="61.62" ry="39.87" />
        <path class="st8" d="M77.28 88.49c-14.23 0-27.62-3.31-37.71-9.32 -10.23-6.1-15.86-14.26-15.86-22.97 0-8.72 5.63-16.88 15.86-22.97 10.09-6.01 23.48-9.33 37.71-9.33 14.23 0 27.62 3.31 37.71 9.33 10.23 6.1 15.86 14.26 15.86 22.97 0 8.71-5.64 16.87-15.86 22.97C104.9 85.18 91.51 88.5 77.28 88.49L77.28 88.49zM77.28 25.67c-28.56 0-51.79 13.69-51.79 30.53 0 16.83 23.23 30.52 51.79 30.52 28.56 0 51.79-13.69 51.79-30.52C129.08 39.36 105.84 25.67 77.28 25.67L77.28 25.67z" />
            <image width="360" height="164" transform="matrix(0.24 0 0 0.24 34.7783 39.1152)" />
                    <path class="st8" d="M45.01 53.82c-0.22-0.01-0.85-0.09-1.42-0.41l0-11.21c0 0 6.13-0.89 6.95 5.76C50.53 47.95 50.48 54.04 45.01 53.82zM46.27 40.61h-9.93v0.75c1.45 0.12 1.65 0.4 2.08 0.85 0.43 0.45 0.64 1.38 0.64 2.78v17.52c0 1.67-0.19 2.74-0.57 3.21 -0.38 0.47-0.68 0.77-2.22 0.92l0 0.73H46.4v-0.73c-1.62-0.34-1.59-0.26-2.06-0.66 -0.47-0.39-0.7-1.36-0.7-2.88v-7.83c0.33 0 0.33-0.05 1.01-0.03 0.68 0.02 1.18 0.01 1.61 0.01 3.03 0 4.22-0.17 6.23-1.41 2.02-1.24 3.18-3.24 3.03-5.98C55.12 40.61 46.27 40.61 46.27 40.61zM94.85 64.31c-0.1 0.83-0.38 1.38-0.86 1.65 -0.48 0.26-0.86 0.44-1.95 0.52l-0.11 0.9h9.52l0.1-0.9c-1.16-0.09-1.35-0.29-1.66-0.62 -0.31-0.32-1-1.21-1.08-2.66l-1.7-21.9h-0.48L80.14 63.7c-0.96 1.07-1.6 1.29-2.11 1.34 -1.67 0.16-2.1-1.1-2.1-1.1 -0.17-0.51-0.22-1.27-0.22-2.27l0-9.23h4.03l0.33-1.42h-4.32v-4.36c0-0.17-0.02-0.27-0.05-0.29 -0.03-0.03-0.14-0.04-0.3-0.04 -2.71 3.29-6.47 5.53-6.47 5.53 -0.06 0.08-0.09 0.18-0.09 0.31 0 0.07 0.02 0.12 0.05 0.16 0.03 0.04 0.08 0.08 0.15 0.12h2.78v9.82c0 1.33 0.15 2.37 0.45 3.12 0.55 1.38 1.94 2.07 3.49 2.07 0.71 0 1.05 0.06 1.87-0.17 0.95-0.27 2.29-1.09 3.4-2.41l6.02-8.49 7.18 0L94.85 64.31zM94.14 55.2h-6.4l5.77-7.98L94.14 55.2z" />
                    <polygon class="st8" points="61.56 50.37 61.57 50.37 61.58 50.37 " />
                    <path class="st8" d="M64.43 66.1c-6.25-0.11-5.92-7.95-5.92-7.95l10.56 0.02c-0.15-1.99-0.84-3.73-2.06-5.23 -1.39-1.71-3.21-2.56-5.44-2.57 -2.24 0-4.05 0.86-5.44 2.57 -1.39 1.71-2.09 3.75-2.09 6.1h-0.01c0 2.17 0.44 3.85 1.76 5.42 1.5 1.78 4.05 3.01 6.58 3.01h0.01c2.2 0 4.05-0.13 6.43-1.68l-0.52-2.34C67.16 66.25 64.43 66.1 64.43 66.1zM61.47 51.65C61.47 51.65 61.47 51.65 61.47 51.65L61.47 51.65C61.47 51.65 61.47 51.65 61.47 51.65c3.45 0 2.95 5.52 2.95 5.52l-5.91 0C58.52 57.17 58.03 51.65 61.47 51.65zM118.44 48.3l-2.96 1.18c0.54 1.36 0.16 2.09-0.3 2.47 -0.36-0.36-0.67-0.59-0.67-0.59 0.2-0.01-0.14-0.19-1.04-0.53 -0.89-0.34-1.91-0.47-3.06-0.38 -2.21 0.17-3.95 1-5.22 2.51 -1.27 1.51-1.85 3.05-1.75 4.63 0.07 1.05 0.34 1.94 0.84 2.65 0.49 0.71 1.21 1.22 2.16 1.52 0 0 0.23 0.08 0.58 0.16 -1.21 0.46-2.33 0.86-3.02 1.27 -0.63 0.37-1.41 1.1-1.48 1.73 -0.15 1.23 0.79 1.67 1.15 1.82 0.36 0.15 1.36 0.58 1.94 0.87 -1.6 0.27-2.73 0.56-3.38 0.85 -1.18 0.54-1.83 1.35-1.95 2.43 -0.19 1.66 0.71 2.94 2.69 3.83 1.15 0.53 2.54 0.88 4.16 1.07 2.48 0.29 4.61 0 6.4-0.86 1.79-0.86 2.78-2.08 2.96-3.66 0.16-1.42-0.34-2.6-1.5-3.55 -0.68-0.56-1.86-1.19-3.54-1.89l-1.93-0.8c-0.39-0.17-1.35-0.43-1.65-0.54 -0.54-0.2-1.11-0.43-1.16-0.83 -0.08-0.52 0.62-0.87 0.96-1.03 0.59-0.3 1.36-0.48 1.75-0.5 2.36-0.18 4.15-0.96 5.37-2.35 1.22-1.39 1.78-2.99 1.66-4.8 -0.02-0.29-0.05-0.56-0.1-0.79 -0.05-0.23-0.12-0.5-0.2-0.82 -0.04-0.13-0.1-0.25-0.16-0.38C117.36 52.45 119.39 51.14 118.44 48.3zM106.87 68.29c0.18 0.02 0.73 0.24 1.64 0.66 0.91 0.42 1.57 0.74 1.97 0.96 0.59 0.33 1.05 0.68 1.37 1.07 0.32 0.38 0.45 0.87 0.38 1.47 -0.09 0.77-0.54 1.35-1.36 1.75 -0.82 0.4-1.91 0.52-3.26 0.37 -1.72-0.2-2.91-0.76-3.56-1.67 -0.39-0.54-0.56-1.1-0.49-1.69 0.11-0.94 0.69-1.71 1.75-2.3C106.38 68.31 106.89 68.1 106.87 68.29zM111.56 58.43c-0.6 1.65-1.38 2.51-2.36 2.59 -0.45 0.03-0.83-0.12-1.14-0.45 -0.31-0.33-0.49-0.84-0.53-1.53 -0.08-1.35 0.14-2.9 0.68-4.66 0.54-1.76 1.33-2.69 2.4-2.76 0.56-0.04 0.97 0.14 1.25 0.55 0.27 0.41 0.43 0.95 0.47 1.61C112.42 55.23 112.16 56.78 111.56 58.43z" />
</svg>