<svg class="logo" version="1.1" xmlns="http://www.w3.org/2000/svg" xmlns:xlink="http://www.w3.org/1999/xlink" x="0px" y="0px" viewBox="0 0 149.5 120.08" xml:space="preserve">
		<style type="text/css">
			.st0 {
				fill: #E28582;
			}
		</style>
			<path id="logo" class="st0" d="M16,0l117.5,0c8.8,0,16,7.2,16,16v88.08c0,8.8-7.2,16-16,16h-19.8c-0.49-6.09-0.97-12.19-1.43-18.28
		c-0.16-2.13-0.14-4.29,0.05-6.42c0.45-5.19,3.45-9.07,6.82-12.73c1.57-1.7,3.26-3.34,4.61-5.21c0.13-0.19,0.24-0.39,0.37-0.58
		c-3.82-8.74-14.13-15.15-14.13-15.15c1.97-0.44,3.7-0.48,5.14-0.36c5.28,0.46,9.43,3.45,12.39,6.56c0.29-1.78,0.44-3.6,0.5-5.44
		c0.3-10.9-3.51-20.24-11.2-28.76c-1.15-0.85-2.71-2.2-4.46-3.23c-3.33-1.98-6.78-1.95-10.22-0.15c-3.16,1.65-5.62,4.08-7.71,6.92
		c-7.2,9.82-9.85,20.65-7.22,32.65c0.93,4.21,3.08,7.75,6.01,10.87c1.77,1.88,3.5,3.8,5.13,5.81c2.88,3.56,4.07,7.7,3.78,12.24
		c-0.45,7.09-0.92,14.18-1.46,21.26H48.96c-0.49-6.09-0.97-12.19-1.43-18.28c-0.16-2.13-0.14-4.29,0.05-6.42
		c0.45-5.19,3.45-9.07,6.82-12.73c1.57-1.7,3.26-3.34,4.61-5.21c0.14-0.19,0.24-0.39,0.37-0.58C55.55,68.12,45.24,61.7,45.24,61.7
		c1.97-0.44,3.7-0.48,5.13-0.36c5.28,0.46,9.43,3.45,12.39,6.56c0.29-1.78,0.45-3.6,0.5-5.44c0.3-10.9-3.51-20.24-11.2-28.76
		c-1.15-0.85-2.71-2.2-4.46-3.23c-3.33-1.98-6.78-1.95-10.22-0.15c-3.16,1.65-5.62,4.08-7.71,6.92c-7.2,9.82-9.85,20.65-7.21,32.65
		c0.93,4.21,3.08,7.75,6.01,10.87c1.77,1.88,3.5,3.8,5.13,5.81c2.88,3.56,4.07,7.7,3.78,12.24c-0.45,7.09-0.92,14.18-1.46,21.26H16
		c-8.8,0-16-7.2-16-16L0,16C0,7.2,7.2,0,16,0" />
	</svg>