<svg xmlns="http://www.w3.org/2000/svg" id="Layer_1" viewBox="0 0 180.4 47.4"><style>.st0{fill:#F68149;} .st1{fill:#E75300;}</style><path d="M113.8 0h7v7h-7zM177.4 38.3c-1.7 0-3-1.3-3-3.2 0-1.9 1.3-3.2 3-3.2s3 1.2 3 3.2c0 1.9-1.2 3.2-3 3.2m0-6c-1.6 0-2.6 1.1-2.6 2.8 0 1.6 1 2.8 2.6 2.8 1.5 0 2.6-1.1 2.6-2.8 0-1.7-1.1-2.8-2.6-2.8M179 37c-.3.1-.6.1-.8.1l-.3-.6c-.2-.4-.4-.7-.6-.9h-.4V37h-.8v-3.8c.5-.1.9-.1 1.3-.1.7 0 1.3.3 1.3 1.1 0 .5-.3.9-.7 1 .2.2.4.5.6.8l.4 1zm-1.7-3.2h-.4V35h.4c.4 0 .6-.2.6-.6 0-.4-.2-.6-.6-.6M75 10.8h7v27.5h-7zM58.2 38.8c-2.1 0-6.2-.2-9.4-1.6l-.4-.2 1.6-6.7.7.3c2.3 1 5.4 1.6 8.3 1.6 2.8 0 4.2-1.2 4.2-3.6 0-2.4-2.6-3.7-5.7-5.2-4-1.9-8.9-4.3-8.9-10.4 0-6.3 5.1-10.4 13-10.4 1.6 0 4.6.1 7.3.8l.6.1-1 6.7-.7-.2c-2.1-.5-5.1-.9-7.3-.9-3.7 0-4.2 1.8-4.2 3.4 0 2.1 2.5 3.3 5.4 4.7 4.1 2 9.2 4.5 9.2 10.7-.1 6.8-4.9 10.9-12.7 10.9M163.9 38.3V19.5c0-1.9-.5-2.9-3.3-2.9-1.8 0-3.3.4-4.8 1.4v20.2h-7V.1l.6-.1h6.4v12.7c2.2-1.7 4.3-2.5 6.9-2.5 5.2 0 8.2 3.2 8.2 8.7v19.3h-7zM113.8 10.8h7v27.5h-7zM75 0h7v7h-7zM102.5 38.2l-6-10.9-2.5 3v8h-7V0h7v20.8l8.4-10.1h8.4L101.1 22c2.8 4.7 5.7 9.7 8.7 15.3l.5.9h-7.8zM137.8 38.8C129.4 38.8 125 34 125 25c0-7.1 3.2-14.7 12.1-14.7 2.7 0 5.4.4 7.1 1l.5.2-1.5 6.8-.7-.3c-1.4-.6-3.3-.9-5-.9-3 0-5 1.2-5 7.2 0 6.6 1.8 7.7 5.5 7.7 1.7 0 3.8-.5 5.1-1.2l.8-.4 1.4 6.6-.4.2c-1.8 1-5 1.6-7.1 1.6"/><path d="M19.5 18.6L39 8.1V.9L19.5 11.4 0 .8v21.6L19.5 33l12.9-6.8v7.2l-12.9 6.8L0 29.6v7.2l19.5 10.6L39 36.8V15.3L19.5 25.8 6.6 18.9v-7.2z" class="st0"/><path d="M0 29.6v7.2l19.5 10.6v-7.2zM0 22.4L19.5 33v-7.2L6.6 18.9v-7.2l12.9 6.9v-7.2L0 .8z" class="st1"/></svg>