<svg xmlns="http://www.w3.org/2000/svg" width="2500" height="2500" viewBox="0 0 192.756 192.756">
  <path
    d="M172.574 64.918c-2.941-4.45-9.578-6.522-20.889-6.522H55.907L48.09 76.752h18.237l-16.543 38.849H31.515l-7.823 18.369h73.513l7.822-18.369H86.5l3.622-8.504h42.442c25.928 0 32.83-11.166 38.129-23.606 2.807-6.592 5.264-13.455 1.881-18.573zm-69.529 11.834h31.396c2.264 0 3.914.535 4.531 1.468.713 1.077.141 2.833-.264 3.782-1.771 4.157-5.982 6.74-10.99 6.74H97.939l5.106-11.99z"
    fill="rgb(125, 115, 115)" />

</svg>
