<svg width="1024" height="794" viewBox="0 0 1024 794" xmlns="http://www.w3.org/2000/svg" xmlns:xlink="http://www.w3.org/1999/xlink"><svg viewBox="0 0 512 512" width="512" height="512" id="codepen"><path d="M427 201.9c-.6-4.2-2.9-8-6.4-10.3L264.2 87.3c-4.9-3.3-11.4-3.3-16.3 0L91.4 191.6c-4 2.7-6.5 7.4-6.5 12.2v104.3c0 4.8 2.5 9.6 6.5 12.2l156.4 104.3c4.9 3.3 11.4 3.3 16.3 0l156.5-104.2c4-2.6 6.6-7.4 6.6-12.2V203.9c-.1-.7-.1-1.3-.2-2 0-.2.1.7 0 0zm-156.3-74.8l115.2 76.8-51.5 34.4-63.8-42.7v-68.5zm-29.4 0v68.6l-63.8 42.7L126 204l115.3-76.9zm-127 104.3l36.8 24.6-36.8 24.6v-49.2zm127 153.5l-115.2-76.8 51.5-34.4 63.8 42.6v68.6zm14.7-94.1L204 256l52-34.8 52 34.8-52 34.8zm14.7 94.1v-68.6l63.8-42.6 51.5 34.4-115.3 76.8zm127-104.3L360.9 256l36.8-24.6v49.2z"/></svg><svg id="crc" viewBox="0 0 200.8 36.3" width="200.8" height="36.3" y="512"><style>.bst0{fill:#fff}.bst1{fill:none;stroke:#005596;stroke-width:4;stroke-miterlimit:10}.bst2{fill:#8b0304}</style><path d="M41 32l1.3-5.7h1.1l-.5 2.3H45l.5-2.3h1.1L45.3 32h-1.1l.5-2.4h-2.2l-.4 2.4H41zm7.6.1c-1.5 0-2.1-1.1-1.7-2.9s1.5-2.9 3-2.9 2.1 1.1 1.7 2.9c-.4 1.8-1.4 2.9-3 2.9zm1.1-4.9c-.9 0-1.4.7-1.7 2-.3 1.3 0 2 .9 2s1.4-.7 1.7-2c.3-1.4 0-2-.9-2zM52 32l1.3-5.7H57l-.2.9h-2.7l-.3 1.4h1.9l-.2.9h-1.9l-.4 1.6H56l-.2.9H52zm4.8 0l1.3-5.7h2.3c1.3 0 1.6.7 1.4 1.7-.1.7-.6 1.3-1.4 1.5l.7 2.5h-1.2l-.6-2.3h-.9l-.5 2.3h-1.1zm1.8-3.2h.8c.8 0 1.2-.3 1.3-.8.1-.5-.1-.8-.7-.8h-1l-.4 1.6zm4.8-2.5h2.1c1.1 0 1.8.4 1.6 1.4-.1.6-.5 1-1.1 1.3.7.3.8.6.7 1.5-.2.9-.9 1.5-2.4 1.5h-2.1l1.2-5.7zm0 4.8h1.1c.6 0 1-.3 1.1-.8.1-.5-.1-.8-.7-.8h-1.1l-.4 1.6zm.5-2.5H65c.5 0 .8-.3.9-.7.1-.4-.1-.7-.6-.7h-1.1l-.3 1.4zm3.6 3.4l1.3-5.7h1.1L68.6 32h-1.1zm6.5-4c-.1-.6-.4-.8-1-.8-.8 0-1.4.8-1.6 2.1-.3 1.2 0 1.9.8 1.9.7 0 1.3-.5 1.4-1.1h-1.1l.2-.9h2.1l-.6 2.8h-.8l.1-.6c-.6.5-1 .7-1.6.7-1.5 0-2-1.2-1.6-2.8.3-1.4 1.2-3 3-3 1.1 0 1.7.6 1.7 1.4l-1 .3zm1.4 4l1.3-5.7h3.8l-.2.9h-2.7l-.3 1.4h1.9l-.2.9h-2l-.4 1.6h2.8l-.2.9h-3.8zm4.8 0l1.3-5.7h2.3c1.3 0 1.6.7 1.4 1.7-.1.7-.6 1.3-1.4 1.5l.7 2.5h-1.2l-.6-2.3h-.9l-.5 2.3h-1.1zm1.8-3.2h.8c.8 0 1.2-.3 1.3-.8.1-.5-.1-.8-.7-.8h-1l-.4 1.6zm9.6-1c-.1-.4-.3-.7-.8-.7s-.9.2-.9.6c-.2 1 2.7.8 2.3 2.6-.3 1.2-1.1 1.7-2.4 1.7-.9 0-1.7-.5-1.8-1.3l1-.4c.1.5.4.9 1 .9.5 0 1-.2 1.1-.8.2-1.1-2.7-.9-2.3-2.6.2-1 1.2-1.6 2.2-1.6.9 0 1.6.5 1.7 1.3l-1.1.3zm3.2 4.2v-.4c-.5.3-.9.4-1.4.4-.7 0-1-.5-.9-1.1.2-.9 1.1-1.4 2.7-1.6l.1-.3c.1-.3-.1-.5-.5-.5-.5 0-.8.2-1 .5l-.5-.5c.3-.4 1.1-.8 1.7-.7 1.1 0 1.5.4 1.2 1.6l-.4 1.9c0 .2-.1.4-.1.6h-.9zm.3-1.9c-.7.1-1.4.3-1.5.8-.1.3.1.5.4.5.3 0 .7-.3 1-.4l.1-.9zm3.5-1.4l-.8 3.3h-1l.7-3.3H97l.2-.8h.6l.1-.5c.2-.9.6-1.2 1.4-1.2h.6l-.2.8h-.3c-.4 0-.6.1-.6.4l-.1.4h.8l-.2.8h-.7zm1.8 1.4c-.2.8.1 1.2.6 1.2s.7-.2 1-.5l.6.4c-.5.6-1.1.8-1.9.8-1.1 0-1.5-.8-1.3-2.1.3-1.3 1.1-2.1 2.2-2.1s1.5.9 1.2 1.9l-.1.4h-2.3zm1.8-.6c.1-.6-.1-.9-.6-.9s-.8.3-1 .9h1.6zm2.2-1.6l.3-1.4h1l-.3 1.4h.8l-.2.8h-.8l-.5 2.3c0 .2 0 .3.3.3.1 0 .3 0 .5-.1l-.2.8c-.3 0-.5.1-.8.1-.7 0-.9-.4-.8-.9l.5-2.4h-.6l.2-.8h.6zm1.3 4.8h.4c.3 0 .5-.1.7-.3.1-.2.2-.3.3-.5v-.5l-.3-3.5h1l.1 2.5 1.3-2.5h1L108 32c-.7 1.2-1.1 1.5-1.9 1.5h-.5l.1-.8zm10-4.9c-.1-.4-.3-.7-.8-.7s-.9.2-.9.6c-.2 1 2.7.8 2.3 2.6-.3 1.2-1.1 1.7-2.4 1.7-.9 0-1.7-.5-1.8-1.3l1-.4c.1.5.4.9 1 .9.5 0 1-.2 1.1-.8.2-1.1-2.7-.9-2.3-2.6.2-1 1.2-1.6 2.2-1.6.9 0 1.6.5 1.7 1.3l-1.1.3zm3.6 0c1.1 0 1.6.8 1.3 2.1-.3 1.3-1.1 2.1-2.2 2.1s-1.6-.8-1.3-2.1c.2-1.2 1.1-2.1 2.2-2.1zm-.2.8c-.5 0-.9.4-1.1 1.3-.2.9 0 1.3.5 1.3s.9-.4 1.1-1.3c.2-.8 0-1.3-.5-1.3zM121 32l1.3-5.7h1L122 32h-1zm6.4-4.1l-.9 4.1h-.9l.1-.4c-.4.3-.9.5-1.4.5-.8 0-1.1-.5-.9-1.4l.6-2.8h1l-.6 2.7c-.1.5 0 .7.3.7.4 0 .8-.2 1-.4l.7-2.9h1zm1.2 0l.3-1.4h1l-.3 1.4h.8l-.2.8h-.8l-.5 2.3c0 .2 0 .3.3.3.1 0 .3 0 .5-.1l-.2.8c-.3 0-.5.1-.8.1-.7 0-.9-.4-.8-.9l.5-2.4h-.6l.2-.8h.6zm2.7 4.1h-1l.9-4.1h1l-.9 4.1zm.1-4.8l.2-.9h1l-.2.9h-1zm3.4.6c1.1 0 1.6.8 1.3 2.1-.3 1.3-1.1 2.1-2.2 2.1s-1.6-.8-1.3-2.1c.3-1.2 1.1-2.1 2.2-2.1zm-.1.8c-.5 0-.9.4-1.1 1.3-.2.9 0 1.3.5 1.3s.9-.4 1.1-1.3c.2-.8 0-1.3-.5-1.3zm1.7 3.4l.9-4.1h.9l-.1.4c.4-.3.9-.5 1.4-.5.8 0 1.1.5.9 1.4l-.6 2.8h-1l.6-2.7c.1-.5 0-.7-.3-.7-.4 0-.8.2-1 .4l-.7 2.9h-1zm7.1-3c-.1-.2-.4-.4-.7-.4-.4 0-.6.2-.6.4-.2.7 2 .4 1.6 1.9-.2.8-.9 1.2-1.8 1.2-.7 0-1.1-.3-1.4-.8l.8-.5c.2.3.4.6.8.6.3 0 .6-.2.7-.5.2-.7-1.9-.4-1.6-1.9.2-.8.9-1.2 1.6-1.2.5 0 1 .2 1.3.6l-.7.6zM49.4 13.3c-.1-1-.7-1.7-1.8-1.7-1.5 0-2.7 1.4-3.4 4.2-.6 2.8-.1 4.2 1.6 4.2 1 0 1.7-.4 2.7-1.8l2 .6c-1.2 2.1-2.9 3.1-5.1 3.1-3 0-4.3-2.2-3.4-6.1.9-3.9 3.1-6.1 6.1-6.1 2.3 0 3.4 1 3.4 3.1l-2.1.5zm5.3 1.5c1.8 0 2.6 1.4 2.2 3.5-.5 2.1-1.9 3.5-3.7 3.5-1.8 0-2.6-1.4-2.2-3.5.4-2.1 1.8-3.5 3.7-3.5zm-.3 1.3c-.9 0-1.5.7-1.8 2.2-.3 1.5-.1 2.2.8 2.2s1.5-.7 1.8-2.2c.3-1.5.1-2.2-.8-2.2zm2.6 5.6l1.5-6.8H60l-.2.7c.7-.6 1.3-.9 2.2-.9.7 0 1.3.3 1.4 1 .7-.6 1.4-1 2.5-1 .7 0 1.6.4 1.2 2L66 21.6h-1.6l1-4.7c.1-.5 0-.8-.6-.9-.4 0-1.1.4-1.5.7l-1.1 4.9h-1.6l1-4.7c.1-.5 0-.8-.6-.9-.4 0-1.1.4-1.5.7l-1.1 4.9H57zm12.6-9.4h1.6l-.7 3.2c.4-.4 1.3-.8 1.8-.8 1.7 0 2.3 1.7 2 3.3-.5 2.1-1.7 3.7-3.5 3.7-.7 0-1.2-.3-1.6-.9l-.3.7h-1.3l2-9.2zm-.1 7.6c.3.3.4.6 1.1.6 1 0 1.7-.8 2-2.2.3-1.4-.1-2.2-1-2.2-.5 0-1 .3-1.4.6l-.7 3.2zm12-5L80 21.7h-1.5l.2-.7c-.7.4-1.5.9-2.3.9-1.4 0-1.8-.9-1.5-2.3l1-4.6h1.6l-1 4.4c-.2.9 0 1.2.6 1.2.7 0 1.3-.4 1.7-.7l1.1-4.9h1.6zm4.3 1.8c-.2-.4-.6-.7-1.1-.7-.6 0-1 .3-1.1.7-.3 1.2 3.2.7 2.7 3.1-.3 1.4-1.5 2-2.9 2-1.1 0-1.9-.5-2.3-1.4l1.3-.8c.3.5.7 1 1.4 1 .6 0 1-.3 1.1-.8.3-1.2-3.2-.7-2.7-3.1.3-1.3 1.5-2 2.7-2 .9 0 1.7.3 2.2 1l-1.3 1zm2.9-1.8l.5-2.2h1.6l-.5 2.2h1.3l-.3 1.3H90l-.8 3.8c-.1.4.1.5.5.5.2 0 .5-.1.8-.1l-.3 1.3c-.5.1-.9.1-1.3.1-1.2 0-1.5-.6-1.3-1.6l.9-4h-.9l.3-1.3h.8zm4.1 6.8h-1.6l1.5-6.8h1.6l-1.5 6.8zm.2-8l.3-1.5h1.6l-.3 1.5H93zm5.3 1.1c1.8 0 2.6 1.4 2.2 3.5-.5 2.1-1.9 3.5-3.7 3.5s-2.6-1.4-2.2-3.5c.5-2.1 1.9-3.5 3.7-3.5zm-.3 1.3c-.9 0-1.5.7-1.8 2.2-.3 1.5-.1 2.2.8 2.2s1.5-.7 1.8-2.2c.4-1.5.1-2.2-.8-2.2zm2.6 5.6l1.5-6.8h1.5l-.2.7c.7-.4 1.5-.9 2.3-.9 1.4 0 1.8.9 1.5 2.3l-1 4.6h-1.6l1-4.4c.2-.9 0-1.2-.6-1.2-.7 0-1.3.4-1.7.7l-1.1 4.9h-1.6zm9.2 0l2.6-11.9h4.7c2.7 0 3.4 1.6 3 3.5-.3 1.5-1.3 2.6-2.8 3.1l1.4 5.3h-2.5l-1.2-4.8h-2l-1.1 4.8h-2.1zm3.7-6.7h1.7c1.8 0 2.4-.6 2.7-1.7s-.3-1.7-1.6-1.7h-2.1l-.7 3.4zm7.8 3.6c-.3 1.4.2 1.9 1 1.9s1.2-.3 1.7-.8l1 .7c-.8 1-1.8 1.4-3.1 1.4-1.8 0-2.6-1.4-2.1-3.5s1.9-3.5 3.7-3.5c1.8 0 2.4 1.5 2.1 3.1l-.1.7h-4.2zm2.8-1.1c.2-.9-.2-1.5-1-1.5s-1.4.5-1.6 1.5h2.6zm6-.8c-.2-.4-.6-.7-1.1-.7-.6 0-1 .3-1.1.7-.3 1.2 3.2.7 2.7 3.1-.3 1.4-1.5 2-2.9 2-1.1 0-1.9-.5-2.3-1.4l1.3-.8c.3.5.7 1 1.4 1 .6 0 1-.3 1.1-.8.3-1.2-3.2-.7-2.7-3.1.3-1.3 1.5-2 2.7-2 .9 0 1.7.3 2.2 1l-1.3 1zm2.9 1.9c-.3 1.4.2 1.9 1 1.9s1.2-.3 1.7-.8l1 .7c-.8 1-1.8 1.4-3.1 1.4-1.8 0-2.6-1.4-2.1-3.5s1.9-3.5 3.7-3.5c1.8 0 2.4 1.5 2.1 3.1l-.1.7H133zm2.9-1.1c.2-.9-.2-1.5-1-1.5s-1.4.5-1.6 1.5h2.6zm5 4.2v-.6c-.7.4-1.4.7-2.3.7-1.2 0-1.6-.9-1.4-1.8.3-1.5 1.8-2.3 4.5-2.7l.1-.6c.1-.5-.2-.8-.8-.8-.8 0-1.3.4-1.7.8l-.9-.8c.6-.7 1.8-1.3 2.8-1.2 1.8 0 2.4.7 2 2.7l-.7 3.2c-.1.3-.1.7-.1 1h-1.5zm.6-3.3c-1.1.2-2.4.4-2.6 1.4-.1.5.1.8.6.8s1.2-.4 1.6-.7l.4-1.5zm2.1 3.3l1.5-6.8h1.5l-.3 1.2c.6-.8 1.2-1.3 2.2-1.3l-.4 1.7h-.3c-.8 0-1.7.9-1.7 1.1l-.9 4.1h-1.6zm9-4.6c-.1-.6-.3-1-1.1-1-.9 0-1.5.7-1.8 2.2-.3 1.5-.1 2.2.9 2.2.7 0 1.2-.5 1.7-1.1l1.1.7c-.9 1.2-1.8 1.7-3.1 1.7-1.8 0-2.6-1.4-2.2-3.5.5-2.1 1.9-3.5 3.7-3.5 1.3 0 2.1.7 2.3 1.8l-1.5.5zm1.4 4.6l2.1-9.4h1.6l-.7 3.4c.6-.4 1.3-.9 2.1-.9 1.4 0 1.8.9 1.5 2.3l-1 4.6H158l1-4.4c.2-.9 0-1.2-.6-1.2-.7 0-1.3.4-1.7.7l-1.1 4.9H154zm17.1-8.4c-.1-1-.7-1.7-1.8-1.7-1.5 0-2.7 1.4-3.4 4.2-.6 2.8-.1 4.2 1.6 4.2 1 0 1.7-.4 2.7-1.8l2 .6c-1.2 2.1-2.9 3.1-5.1 3.1-3 0-4.3-2.2-3.4-6.1.9-3.9 3.1-6.1 6.1-6.1 2.3 0 3.4 1 3.4 3.1l-2.1.5zm3.1 5.3c-.3 1.4.2 1.9 1 1.9s1.2-.3 1.7-.8l1 .7c-.8 1-1.8 1.4-3.1 1.4-1.8 0-2.6-1.4-2.1-3.5s1.9-3.5 3.7-3.5c1.8 0 2.4 1.5 2.1 3.1l-.1.7h-4.2zm2.9-1.1c.2-.9-.2-1.5-1-1.5s-1.4.5-1.6 1.5h2.6zm1.6 4.2l1.5-6.8h1.5l-.2.7c.7-.4 1.5-.9 2.3-.9 1.4 0 1.8.9 1.5 2.3l-1 4.6h-1.6l1-4.4c.2-.9 0-1.2-.6-1.2-.7 0-1.3.4-1.7.7l-1.1 4.9h-1.6zm8.7-6.8l.5-2.2h1.6l-.5 2.2h1.3l-.3 1.3h-1.3l-.8 3.8c-.1.4.1.5.5.5.2 0 .5-.1.8-.1l-.3 1.3c-.5.1-.9.1-1.3.1-1.2 0-1.5-.6-1.3-1.6l.9-4h-.9l.3-1.3h.8zm4.1 3.7c-.3 1.4.2 1.9 1 1.9s1.2-.3 1.7-.8l1 .7c-.8 1-1.8 1.4-3.1 1.4-1.8 0-2.6-1.4-2.1-3.5s1.9-3.5 3.7-3.5c1.8 0 2.4 1.5 2.1 3.1l-.1.7h-4.2zm2.8-1.1c.2-.9-.2-1.5-1-1.5s-1.4.5-1.6 1.5h2.6zm1.6 4.2l1.5-6.8h1.5l-.3 1.2c.6-.8 1.2-1.3 2.2-1.3l-.4 1.7h-.3c-.8 0-1.7.9-1.7 1.1l-.9 4.1h-1.6z" class="bst0"/><path d="M21.7 3l11.6 8.5c1.8 1.3 2.5 3.6 1.9 5.7l-4.4 13.7c-.7 2.1-2.6 3.5-4.8 3.5H11.5c-2.2 0-4.2-1.4-4.8-3.5L2.2 17.1c-.7-2.1.1-4.4 1.9-5.7L15.7 3c1.8-1.3 4.2-1.3 6 0z" class="bst1"/><path d="M11.1 21c-1 4.2 1.5 8 5.6 8.6 4.1.6 8.3-2.3 9.3-6.5.5-1.9.2-3.7-.6-5.2-1.7-3.2-.7-5-.7-5s-3.7 1.8-2.4 6.4c-2.2-1.2-2.7-4.4-1.6-6 1.7-2.4 1.7-4.5-.1-5.3.5 1.6-1.6 3-3 4.5-4.7 4.9-1.8 9.8-1.8 9.8s-2.4-.6-2.2-3.9c0-.5.5-2.1-.1-2.8 0 .5-.1 1.2-.7 1.9-.7 1-1.3 2.2-1.7 3.5z" class="bst2"/></svg><svg viewBox="0 0 16 16" width="16" height="16" id="github" x="200.8" y="512"><path fill="#828282" d="M7.999.431a7.76 7.76 0 0 0-2.453 15.124c.388.071.53-.168.53-.374 0-.184-.007-.672-.01-1.32-2.159.469-2.614-1.04-2.614-1.04-.353-.896-.862-1.135-.862-1.135-.705-.481.053-.472.053-.472.779.055 1.189.8 1.189.8.692 1.186 1.816.843 2.258.645.071-.502.271-.843.493-1.037-1.723-.197-3.534-.862-3.534-3.836 0-.847.302-1.54.799-2.082-.08-.197-.347-.986.076-2.054 0 0 .652-.209 2.134.796A7.39 7.39 0 0 1 8 4.184a7.45 7.45 0 0 1 1.943.261c1.482-1.004 2.132-.796 2.132-.796.423 1.068.157 1.857.077 2.054.497.542.798 1.235.798 2.082 0 2.981-1.814 3.637-3.543 3.829.279.24.527.713.527 1.437 0 1.037-.01 1.874-.01 2.129 0 .208.14.449.534.373A7.762 7.762 0 0 0 7.999.431z"/></svg><svg viewBox="0 0 512 512" width="512" height="512" id="linkedin" x="512"><path d="M186.4 142.4c0 19-15.3 34.5-34.2 34.5-18.9 0-34.2-15.4-34.2-34.5 0-19 15.3-34.5 34.2-34.5 18.9 0 34.2 15.5 34.2 34.5zm-5 58.9h-57.8v186.8h57.8V201.3zm92.4 0h-55.4v186.8h55.4v-98c0-26.3 12.1-41.9 35.2-41.9 21.3 0 31.5 15 31.5 41.9v98H398V269.8c0-50-28.3-74.2-68-74.2-39.6 0-56.3 30.9-56.3 30.9v-25.2h.1z"/></svg><svg viewBox="0 0 166.4 85.6" width="166.4" height="85.6" id="mol" y="595.6999999999999"><style>.est0{fill:#0066b3}.est1{fill:#fff}</style><path class="est0" d="M16.4 72.3h-4.5s-2.4 5.9-3.1 7.5c-.6-1.7-2.9-7.5-2.9-7.5H.7v1.5h1.6v9.6H.7v1.5H5v-1.5H3.8v-6.8c1.1 2.8 3.3 8.5 3.3 8.5h1.2s2.4-5.8 3.5-8.6v6.8h-1.2v1.5h6.3v-1.5h-1.6v-9.6h1.6v-1.5h-.5M107.9 72.3h-4.3v1.5h1.2c-.7.9-3.5 3.6-3.7 3.9h-.4v-3.9h1.1v-1.5h-6.3v1.5h1.7v9.6h-1.7v1.5h6.4v-1.5h-1.1v-4.5h.4c.2.3 2.3 3.6 2.9 4.5h-.9v1.5h6.7v-1.5h-1.6c-.2-.3-4.1-6.1-4.4-6.5.3-.3 2.7-2.9 2.9-3.1h2.2v-1.5h-1.1M123.6 72.3h-6.5v1.5h1.7v9.6h-1.7v1.5h12.4V80h-1.3v.3c-.3 2.7-2.4 3.1-4.2 3.1h-1.7v-9.6h1.6v-1.5h-.3M79.1 75.8c0 2.7 2.8 3.6 5.1 4.3 2.1.7 3.4 1.2 3.4 2.3 0 1.5-2 1.7-2.8 1.7-2.5 0-4.1-1.8-4.2-3.5v-.4h-1.7l.2 4.3.3.1c1.6.6 3.4.9 5.2.9 3.5 0 6.1-1.8 6.1-4.3 0-3.1-3-4.1-5.4-4.8-1.8-.6-3-1-3-1.9 0-.9.8-1.6 2-1.6 2.1 0 3.4 1.4 3.7 2.9l.1.3h1.6l-.2-3.7-.3-.1c-1.9-.6-3.1-.8-4.5-.8-2.8.1-5.6 1.4-5.6 4.3M22.4 75.9c-.9.1-1.7.1-2.5.1h-1.4v1.2h1.2v6.4h-1.2v1.2H24v-1.2h-1.2v-7.7h-.4M19.6 73.7c0 .9.7 1.7 1.7 1.7.9 0 1.7-.7 1.7-1.7 0-.9-.7-1.7-1.7-1.7-1 .1-1.7.8-1.7 1.7M28.7 73.7H26V76h-1.2v1.2H26v5.3c0 2.2 1.3 2.5 2.5 2.5.9 0 1.9-.1 2.8-1l.2-.2-.8-.8-.3.2c-.2.2-.5.4-.9.4s-.5-.2-.5-1v-5.4h1.7V76H29v-2.3h-.3M32.4 81.3v3l.3.1c.6.2 1.8.6 3.2.6 1.9 0 3.9-1.2 3.9-3.4 0-1.5-.8-2.2-1.7-2.7-.1-.1-.3-.1-.3-.1-.4-.2-.8-.3-1.2-.5-1-.3-1.5-.6-1.5-1 0-.6.7-.7.9-.7 1.1 0 1.8.8 1.9 1.7H39V76l-.3-.1c-.7-.3-1.4-.5-2.7-.5-2.1 0-3.4 1.2-3.4 3.1 0 2.2 1.8 2.8 3.1 3.3 1 .4 1.7.6 1.7 1.2 0 .8-1 .9-1.4.9-1.4 0-2.2-1.1-2.2-2.4h-1.4M159.1 81.5v3l.3.1c.6.2 1.8.6 3.2.6 1.9 0 3.9-1.1 3.9-3.3 0-1.5-.8-2.2-1.7-2.7-.1-.1-.3-.1-.3-.1-.4-.2-.8-.3-1.2-.5-1-.3-1.5-.6-1.5-1 0-.6.7-.7.9-.7 1 0 1.8.8 1.9 1.7h1.3v-2.3l-.3-.1c-.7-.3-1.4-.5-2.7-.5-2.1 0-3.4 1.2-3.4 3.1 0 2.2 1.8 2.8 3.1 3.3 1 .4 1.7.6 1.7 1.2 0 .8-1 .9-1.4.9-1.4 0-2.2-1.1-2.2-2.4h-1.6M51.2 84.8v-1.3H50v-7.7h-.4c-.8.2-1.6.2-2.5.2h-1.4v1.2h1.2v4c0 1.4-.5 2.3-1.5 2.3-.6 0-.9-.1-.9-1.1v-6.6h-.4c-.8.2-1.6.2-2.5.2h-1.4v1.2h1.2v4.7c0 2.1 1 3.1 3.2 3.1.9 0 1.7-.3 2.3-.8v.6h4.3M56.2 75.9c-.8.1-1.6.1-2.5.1h-1.4v1.2h1.2v6.4h-1.2v1.2h5.5v-1.2h-1.2v-7.7h-.4M53.4 73.7c0 .9.7 1.7 1.7 1.7.9 0 1.7-.7 1.7-1.7 0-.9-.7-1.7-1.7-1.7-.9.1-1.7.8-1.7 1.7M74.7 83.6c0-.7.6-1.3 1.3-1.3.7 0 1.3.6 1.3 1.3 0 .7-.6 1.3-1.3 1.3-.7-.1-1.3-.6-1.3-1.3M91.3 83.6c0-.7.6-1.3 1.3-1.3.7 0 1.3.6 1.3 1.3 0 .7-.6 1.3-1.3 1.3-.8 0-1.3-.6-1.3-1.3M111.1 83.7c0-.7.6-1.3 1.3-1.3.7 0 1.3.6 1.3 1.3 0 .7-.6 1.3-1.3 1.3-.8 0-1.3-.6-1.3-1.3M134.8 75.9c-.8.1-1.7.1-2.5.1h-1.4v1.2h1.2v6.4h-1.2v1.2h5.5v-1.2h-1.2v-7.7h-.4M132 73.8c0 .9.7 1.7 1.7 1.7.9 0 1.7-.7 1.7-1.7 0-.9-.7-1.7-1.7-1.7s-1.7.7-1.7 1.7M141.7 76.6v-.7h-.4c-.8.1-1.7.1-2.5.1h-1.4v1.2h1.2v6.4h-1.2v1.2h5v-1.2h-.7v-4.3c0-1.2.7-1.9 1.5-1.9.5 0 .9.1.9 1.2v5h-.5v1.2h4.8v-1.2h-1.2v-4.7c0-1.9-1.2-3.1-3.2-3.1-.9 0-1.7.3-2.3.8M67.5 84.2c-2.8 0-3.1-3-3.1-5.7 0-2.6.4-5.6 3.1-5.6 2.8 0 3.2 3 3.2 5.6 0 2.7-.4 5.7-3.2 5.7m0-12.6c-4.2 0-7.1 2.8-7.1 7s2.8 7 7.1 7c4.2 0 7.1-2.8 7.1-7s-2.9-7-7.1-7zM153.3 77c.7 0 1 .6 1 1.7v.4h-2.2c.1-1.1.3-2.1 1.2-2.1m4.3 3.4V80c0-2.5-1.7-4.2-4.2-4.2-2.7 0-4.7 1.9-4.7 4.6 0 2.8 1.9 4.6 4.7 4.6 1.9 0 3.3-1 4-2.7l.1-.3-1.1-.5-.1.3c-.5 1.2-1.4 1.8-2.5 1.8-1.2 0-1.8-.9-1.8-2.9v-.3h5.6z"/><path class="est1" d="M56.8 2h52.8v58.9H56.8z"/><path class="est0" d="M83.2 45.7c-5.4 0-7.8-4.4-7.8-14.3s2.4-14.3 7.8-14.3S91 21.5 91 31.4s-2.4 14.3-7.8 14.3m0-32.7c-11 0-18.7 7.6-18.7 18.4 0 11 7.5 18.5 18.7 18.5s18.7-7.4 18.7-18.5c0-10.8-7.7-18.4-18.7-18.4z"/><path class="est0" d="M109.6 60.9H56.8V2h52.8v58.9M165.4 0H0v62.9h166.4V0h-1z"/><path class="est1" d="M47.8 15.5H36.2S30 30.3 28.3 34.6C26.7 30.3 21 15.5 21 15.5H7.8v3.7h4.1v24.4H7.8v3.7h10.9v-3.7h-3.1V26.5C18.4 33.6 24 48 24 48h3.1s6.1-14.8 8.9-21.8v17.4h-2.9v3.7H49v-3.7h-4.1V19.2H49v-3.7h-1.2M138.5 15.5h-17.2v3.6h4.1v24.4h-4.1v3.7h33.1V35h-3.2l-.1.8c-.8 6.9-6.2 7.7-10.6 7.7h-6V19.1h4v-3.6"/></svg><svg viewBox="0 0 155.28 111.84" width="155.28" height="111.84" id="petag" y="681.3"><style>.fst0{fill:#0073ae}.fst1{fill:url(#fSVGID_1_)}.fst2{filter:url(#fAdobe_OpacityMaskFilter)}.fst3{fill:url(#fSVGID_3_)}.fst4{mask:url(#fSVGID_2_);fill:url(#fSVGID_4_)}.fst5{filter:url(#fAdobe_OpacityMaskFilter_1_)}.fst6{fill:url(#fSVGID_6_)}.fst7{mask:url(#fSVGID_5_);fill:url(#fSVGID_7_)}.fst8{fill:#fff}</style><path class="fst0" d="M121.93 89.51c0-2.34 1.84-4.2 4.17-4.2s4.17 1.86 4.17 4.2-1.84 4.2-4.17 4.2-4.17-1.86-4.17-4.2zm.91 0c0 1.87 1.46 3.29 3.26 3.29 1.8 0 3.26-1.42 3.26-3.29 0-1.88-1.46-3.29-3.26-3.29-1.81.01-3.26 1.41-3.26 3.29zm5.19 2.16h-.99l-1.01-1.73h-.76v1.73h-.91v-4.36h2.12c1 0 1.69.18 1.69 1.33 0 .8-.41 1.24-1.18 1.29l1.04 1.74zm-1.55-2.52c.49 0 .78-.11.78-.58 0-.48-.58-.48-1-.48h-1v1.06h1.22z"/><image width="647" height="466" transform="scale(.24)" opacity=".6"/><radialGradient id="fSVGID_1_" cx="405.212" cy="236.935" r="61.821" gradientTransform="matrix(1 .0034 -.0022 .6486 -327.51 -99.17)" gradientUnits="userSpaceOnUse"><stop offset=".481" stop-color="#00A2E0"/><stop offset=".793" stop-color="#0089CF"/><stop offset=".871" stop-color="#0088CF"/><stop offset=".905" stop-color="#0085CC"/><stop offset=".931" stop-color="#007FC7"/><stop offset=".953" stop-color="#0077C0"/><stop offset=".972" stop-color="#006CB7"/><stop offset=".989" stop-color="#005FAE"/><stop offset="1" stop-color="#0054A6"/></radialGradient><ellipse class="fst1" cx="77.63" cy="55.89" rx="61.61" ry="39.87"/><defs><filter id="fAdobe_OpacityMaskFilter" filterUnits="userSpaceOnUse" x="16.02" y="16.02" width="123.23" height="79.74"><feColorMatrix values="1 0 0 0 0 0 1 0 0 0 0 0 1 0 0 0 0 0 1 0"/></filter></defs><mask maskUnits="userSpaceOnUse" x="16.02" y="16.02" width="123.23" height="79.74" id="fSVGID_2_"><g class="fst2"><radialGradient id="fSVGID_3_" cx="65.466" cy="720.738" r="70.921" fx="36.529" fy="720.696" gradientTransform="matrix(0 1 -1.655 0 1270.42 -41.054)" gradientUnits="userSpaceOnUse"><stop offset=".664"/><stop offset=".866" stop-color="#FFF"/></radialGradient><ellipse class="fst3" cx="77.63" cy="55.89" rx="61.62" ry="39.87"/></g></mask><radialGradient id="fSVGID_4_" cx="65.466" cy="688.903" r="61.672" gradientTransform="matrix(-1 0 0 -.642 143.1 498.493)" gradientUnits="userSpaceOnUse"><stop offset=".466" stop-color="#00A2E0"/><stop offset=".687" stop-color="#007AC1"/><stop offset=".867" stop-color="#005FAD"/><stop offset=".953" stop-color="#0054A6"/></radialGradient><ellipse class="fst4" cx="77.63" cy="55.89" rx="61.62" ry="39.87"/><defs><filter id="fAdobe_OpacityMaskFilter_1_" filterUnits="userSpaceOnUse" x="16.02" y="16.02" width="123.23" height="79.74"><feColorMatrix values="1 0 0 0 0 0 1 0 0 0 0 0 1 0 0 0 0 0 1 0"/></filter></defs><mask maskUnits="userSpaceOnUse" x="16.02" y="16.02" width="123.23" height="79.74" id="fSVGID_5_"><g class="fst5"><radialGradient id="fSVGID_6_" cx="405.669" cy="268.41" r="70.921" fx="376.732" fy="268.368" gradientTransform="matrix(0 -1 1.4297 0 -306.108 493.03)" gradientUnits="userSpaceOnUse"><stop offset=".75"/><stop offset=".9" stop-color="#FFF"/></radialGradient><ellipse class="fst6" cx="77.63" cy="55.89" rx="61.62" ry="39.87"/></g></mask><radialGradient id="fSVGID_7_" cx="405.669" cy="236.575" r="61.672" gradientTransform="matrix(1 0 0 .642 -328.035 -96.345)" gradientUnits="userSpaceOnUse"><stop offset=".827" stop-color="#8FD1F3"/><stop offset=".887" stop-color="#8DCFF2"/><stop offset=".913" stop-color="#87C8EE"/><stop offset=".934" stop-color="#7BBDE8"/><stop offset=".951" stop-color="#6BAEDF"/><stop offset=".965" stop-color="#579BD4"/><stop offset=".979" stop-color="#3C86C7"/><stop offset=".991" stop-color="#0772BA"/><stop offset="1" stop-color="#0061AF"/></radialGradient><ellipse class="fst7" cx="77.63" cy="55.89" rx="61.62" ry="39.87"/><path class="fst8" d="M77.28 88.49c-14.23 0-27.62-3.31-37.71-9.32-10.23-6.1-15.86-14.26-15.86-22.97 0-8.72 5.63-16.88 15.86-22.97 10.09-6.01 23.48-9.33 37.71-9.33s27.62 3.31 37.71 9.33c10.23 6.1 15.86 14.26 15.86 22.97 0 8.71-5.64 16.87-15.86 22.97-10.09 6.01-23.48 9.33-37.71 9.32zm0-62.82c-28.56 0-51.79 13.69-51.79 30.53 0 16.83 23.23 30.52 51.79 30.52s51.79-13.69 51.79-30.52c.01-16.84-23.23-30.53-51.79-30.53z"/><image width="360" height="164" transform="matrix(.24 0 0 .24 34.778 39.115)"/><path class="fst8" d="M45.01 53.82c-.22-.01-.85-.09-1.42-.41V42.2s6.13-.89 6.95 5.76c-.01-.01-.06 6.08-5.53 5.86zm1.26-13.21h-9.93v.75c1.45.12 1.65.4 2.08.85.43.45.64 1.38.64 2.78v17.52c0 1.67-.19 2.74-.57 3.21-.38.47-.68.77-2.22.92v.73H46.4v-.73c-1.62-.34-1.59-.26-2.06-.66-.47-.39-.7-1.36-.7-2.88v-7.83c.33 0 .33-.05 1.01-.03.68.02 1.18.01 1.61.01 3.03 0 4.22-.17 6.23-1.41 2.02-1.24 3.18-3.24 3.03-5.98-.4-7.25-9.25-7.25-9.25-7.25zm48.58 23.7c-.1.83-.38 1.38-.86 1.65-.48.26-.86.44-1.95.52l-.11.9h9.52l.1-.9c-1.16-.09-1.35-.29-1.66-.62-.31-.32-1-1.21-1.08-2.66l-1.7-21.9h-.48L80.14 63.7c-.96 1.07-1.6 1.29-2.11 1.34-1.67.16-2.1-1.1-2.1-1.1-.17-.51-.22-1.27-.22-2.27v-9.23h4.03l.33-1.42h-4.32v-4.36c0-.17-.02-.27-.05-.29-.03-.03-.14-.04-.3-.04-2.71 3.29-6.47 5.53-6.47 5.53-.06.08-.09.18-.09.31 0 .07.02.12.05.16.03.04.08.08.15.12h2.78v9.82c0 1.33.15 2.37.45 3.12.55 1.38 1.94 2.07 3.49 2.07.71 0 1.05.06 1.87-.17.95-.27 2.29-1.09 3.4-2.41l6.02-8.49h7.18l.62 7.92zm-.71-9.11h-6.4l5.77-7.98.63 7.98zM61.56 50.37h.02z"/><path class="fst8" d="M64.43 66.1c-6.25-.11-5.92-7.95-5.92-7.95l10.56.02c-.15-1.99-.84-3.73-2.06-5.23-1.39-1.71-3.21-2.56-5.44-2.57-2.24 0-4.05.86-5.44 2.57-1.39 1.71-2.09 3.75-2.09 6.1h-.01c0 2.17.44 3.85 1.76 5.42 1.5 1.78 4.05 3.01 6.58 3.01h.01c2.2 0 4.05-.13 6.43-1.68l-.52-2.34c-1.13 2.8-3.86 2.65-3.86 2.65zm-2.96-14.45c3.45 0 2.95 5.52 2.95 5.52h-5.91c.01 0-.48-5.52 2.96-5.52zm56.97-3.35l-2.96 1.18c.54 1.36.16 2.09-.3 2.47-.36-.36-.67-.59-.67-.59.2-.01-.14-.19-1.04-.53-.89-.34-1.91-.47-3.06-.38-2.21.17-3.95 1-5.22 2.51-1.27 1.51-1.85 3.05-1.75 4.63.07 1.05.34 1.94.84 2.65.49.71 1.21 1.22 2.16 1.52 0 0 .23.08.58.16-1.21.46-2.33.86-3.02 1.27-.63.37-1.41 1.1-1.48 1.73-.15 1.23.79 1.67 1.15 1.82.36.15 1.36.58 1.94.87-1.6.27-2.73.56-3.38.85-1.18.54-1.83 1.35-1.95 2.43-.19 1.66.71 2.94 2.69 3.83 1.15.53 2.54.88 4.16 1.07 2.48.29 4.61 0 6.4-.86s2.78-2.08 2.96-3.66c.16-1.42-.34-2.6-1.5-3.55-.68-.56-1.86-1.19-3.54-1.89l-1.93-.8c-.39-.17-1.35-.43-1.65-.54-.54-.2-1.11-.43-1.16-.83-.08-.52.62-.87.96-1.03.59-.3 1.36-.48 1.75-.5 2.36-.18 4.15-.96 5.37-2.35 1.22-1.39 1.78-2.99 1.66-4.8-.02-.29-.05-.56-.1-.79-.05-.23-.12-.5-.2-.82-.04-.13-.1-.25-.16-.38 1.37-.54 3.4-1.85 2.45-4.69zm-11.57 19.99c.18.02.73.24 1.64.66.91.42 1.57.74 1.97.96.59.33 1.05.68 1.37 1.07.32.38.45.87.38 1.47-.09.77-.54 1.35-1.36 1.75-.82.4-1.91.52-3.26.37-1.72-.2-2.91-.76-3.56-1.67-.39-.54-.56-1.1-.49-1.69.11-.94.69-1.71 1.75-2.3 1.07-.6 1.58-.81 1.56-.62zm4.69-9.86c-.6 1.65-1.38 2.51-2.36 2.59-.45.03-.83-.12-1.14-.45-.31-.33-.49-.84-.53-1.53-.08-1.35.14-2.9.68-4.66.54-1.76 1.33-2.69 2.4-2.76.56-.04.97.14 1.25.55.27.41.43.95.47 1.61.09 1.45-.17 3-.77 4.65z"/></svg><svg id="sikich" viewBox="0 0 180.4 47.4" width="180.4" height="47.4" y="548.3"><style>.gst0{fill:#f68149}.gst1{fill:#e75300}</style><path d="M113.8 0h7v7h-7zm63.6 38.3c-1.7 0-3-1.3-3-3.2 0-1.9 1.3-3.2 3-3.2s3 1.2 3 3.2c0 1.9-1.2 3.2-3 3.2m0-6c-1.6 0-2.6 1.1-2.6 2.8 0 1.6 1 2.8 2.6 2.8 1.5 0 2.6-1.1 2.6-2.8 0-1.7-1.1-2.8-2.6-2.8M179 37c-.3.1-.6.1-.8.1l-.3-.6c-.2-.4-.4-.7-.6-.9h-.4V37h-.8v-3.8c.5-.1.9-.1 1.3-.1.7 0 1.3.3 1.3 1.1 0 .5-.3.9-.7 1 .2.2.4.5.6.8l.4 1zm-1.7-3.2h-.4V35h.4c.4 0 .6-.2.6-.6 0-.4-.2-.6-.6-.6M75 10.8h7v27.5h-7zm-16.8 28c-2.1 0-6.2-.2-9.4-1.6l-.4-.2 1.6-6.7.7.3c2.3 1 5.4 1.6 8.3 1.6 2.8 0 4.2-1.2 4.2-3.6 0-2.4-2.6-3.7-5.7-5.2-4-1.9-8.9-4.3-8.9-10.4 0-6.3 5.1-10.4 13-10.4 1.6 0 4.6.1 7.3.8l.6.1-1 6.7-.7-.2c-2.1-.5-5.1-.9-7.3-.9-3.7 0-4.2 1.8-4.2 3.4 0 2.1 2.5 3.3 5.4 4.7 4.1 2 9.2 4.5 9.2 10.7-.1 6.8-4.9 10.9-12.7 10.9m105.7-.5V19.5c0-1.9-.5-2.9-3.3-2.9-1.8 0-3.3.4-4.8 1.4v20.2h-7V.1l.6-.1h6.4v12.7c2.2-1.7 4.3-2.5 6.9-2.5 5.2 0 8.2 3.2 8.2 8.7v19.3h-7zm-50.1-27.5h7v27.5h-7zM75 0h7v7h-7zm27.5 38.2l-6-10.9-2.5 3v8h-7V0h7v20.8l8.4-10.1h8.4L101.1 22c2.8 4.7 5.7 9.7 8.7 15.3l.5.9h-7.8zm35.3.6C129.4 38.8 125 34 125 25c0-7.1 3.2-14.7 12.1-14.7 2.7 0 5.4.4 7.1 1l.5.2-1.5 6.8-.7-.3c-1.4-.6-3.3-.9-5-.9-3 0-5 1.2-5 7.2 0 6.6 1.8 7.7 5.5 7.7 1.7 0 3.8-.5 5.1-1.2l.8-.4 1.4 6.6-.4.2c-1.8 1-5 1.6-7.1 1.6"/><path d="M19.5 18.6L39 8.1V.9L19.5 11.4 0 .8v21.6L19.5 33l12.9-6.8v7.2l-12.9 6.8L0 29.6v7.2l19.5 10.6L39 36.8V15.3L19.5 25.8 6.6 18.9v-7.2z" class="gst0"/><path d="M0 29.6v7.2l19.5 10.6v-7.2zm0-7.2L19.5 33v-7.2L6.6 18.9v-7.2l12.9 6.9v-7.2L0 .8z" class="gst1"/></svg><svg viewBox="0 0 16 16" width="16" height="16" id="twitter" x="216.8" y="512"><path fill="#828282" d="M15.969 3.058a6.538 6.538 0 0 1-1.878.515 3.28 3.28 0 0 0 1.438-1.809 6.531 6.531 0 0 1-2.076.793 3.27 3.27 0 0 0-5.572 2.982A9.28 9.28 0 0 1 1.14 2.124a3.27 3.27 0 0 0 1.013 4.365A3.257 3.257 0 0 1 .671 6.08v.041a3.271 3.271 0 0 0 2.623 3.206 3.259 3.259 0 0 1-1.476.056 3.273 3.273 0 0 0 3.055 2.271 6.56 6.56 0 0 1-4.841 1.354 9.254 9.254 0 0 0 5.013 1.469c6.015 0 9.304-4.983 9.304-9.304 0-.142-.003-.283-.009-.423a6.653 6.653 0 0 0 1.629-1.692z"/></svg></svg>